<svg class="svg-icon" style="width: 1em; height: 1em;vertical-align: middle;fill: currentColor;overflow: hidden;" viewBox="0 0 1024 1024" version="1.1" xmlns="http://www.w3.org/2000/svg"><path d="M960.8 51.58c-0.06-0.28-0.16-0.54-0.24-0.8-0.1-0.36-0.18-0.72-0.32-1.06-0.14-0.32-0.32-0.6-0.48-0.9-0.14-0.28-0.28-0.56-0.44-0.82-0.34-0.5-0.72-0.94-1.12-1.38-0.06-0.04-0.08-0.1-0.12-0.14-0.04-0.04-0.1-0.08-0.14-0.12-0.44-0.4-0.9-0.8-1.4-1.12-0.24-0.18-0.52-0.3-0.78-0.44-0.3-0.16-0.6-0.36-0.94-0.48-0.32-0.14-0.66-0.22-0.98-0.32-0.3-0.08-0.58-0.2-0.88-0.26-0.62-0.12-1.24-0.18-1.86-0.18-0.02 0-0.06-0.02-0.1-0.02s-0.06 0.02-0.08 0.02c-0.64 0-1.26 0.06-1.88 0.18-0.3 0.06-0.58 0.18-0.86 0.26-0.34 0.1-0.68 0.18-1 0.32-0.34 0.14-0.64 0.32-0.96 0.5-0.26 0.14-0.52 0.24-0.76 0.42a10.2 10.2 0 0 0-1.54 1.24l-35.54 35.54-35.54-35.54a9.998 9.998 0 0 0-14.14 0l-35.54 35.54-35.54-35.54a9.98 9.98 0 0 0-7.08-2.94c-2.56 0-5.12 0.98-7.06 2.94h-0.02l-35.54 35.54-35.54-35.54c-3.12-3.12-7.78-3.7-11.52-1.84-0.94 0.48-1.84 1.06-2.62 1.84l-35.54 35.54-35.54-35.54c-0.98-0.98-2.1-1.72-3.3-2.2-1.22-0.48-2.5-0.74-3.78-0.74-2.56 0-5.12 0.98-7.06 2.94l-35.54 35.54-35.54-35.54h-0.02c-0.96-0.98-2.1-1.72-3.3-2.2s-2.48-0.74-3.76-0.74c-2.56 0-5.12 0.98-7.08 2.94l-35.54 35.54-35.54-35.54c-2.34-2.34-5.54-3.24-8.58-2.78-0.46-0.08-0.94-0.16-1.44-0.16-5.52 0-10 4.48-10 10v293.12H166.92c-55.1 0-99.92 44.82-99.92 99.92v523.88c0 5.52 4.48 10 10 10h514.3c5.52 0 10-4.48 10-10V686.96h259.86c55.06-0.04 99.84-44.86 99.84-99.92V53.56c0-0.66-0.06-1.32-0.2-1.98z m-379.5 395v513.88H87V446.58c0-44.08 35.86-79.92 79.92-79.92h454.4c-24.28 18.24-40.02 47.28-40.02 79.92z m20 220.38V446.58c0-44.08 35.86-79.92 79.94-79.92 44.06 0 79.92 35.84 79.92 79.92v140.46c0 32.64 15.74 61.68 40.02 79.92h-199.88z m339.7-79.92c0 44.06-35.86 79.92-79.92 79.92-44.08 0-79.92-35.86-79.92-79.92v-140.46c0-55.1-44.84-99.92-99.92-99.92H446.68V74.76l28.48 28.48a10.044 10.044 0 0 0 14.16 0l35.54-35.56 35.54 35.56c1.96 1.94 4.52 2.92 7.08 2.92 2.54 0 5.1-0.98 7.06-2.92l35.54-35.56 35.56 35.56c1.86 1.86 4.4 2.92 7.06 2.92 2.66 0 5.2-1.06 7.08-2.92l35.54-35.54 35.54 35.54c1.94 1.94 4.5 2.92 7.06 2.92 2.56 0 5.12-0.98 7.08-2.92l35.54-35.56 35.54 35.56a10.044 10.044 0 0 0 14.16 0l35.54-35.54 35.54 35.54c1.86 1.86 4.42 2.92 7.06 2.92 2.66 0 5.2-1.06 7.08-2.92l25.54-25.56v509.36z" fill="#23130D" /><path d="M941 77.68v509.36c0 44.06-35.86 79.92-79.92 79.92-44.08 0-79.92-35.86-79.92-79.92v-140.46c0-55.1-44.84-99.92-99.92-99.92H446.68V74.76l28.48 28.48a10.044 10.044 0 0 0 14.16 0l35.54-35.56 35.54 35.56c1.96 1.94 4.52 2.92 7.08 2.92 2.54 0 5.1-0.98 7.06-2.92l35.54-35.56 35.56 35.56c1.86 1.86 4.4 2.92 7.06 2.92 2.66 0 5.2-1.06 7.08-2.92l35.54-35.54 35.54 35.54c1.94 1.94 4.5 2.92 7.06 2.92 2.56 0 5.12-0.98 7.08-2.92l35.54-35.56 35.54 35.56a10.044 10.044 0 0 0 14.16 0l35.54-35.54 35.54 35.54c1.86 1.86 4.42 2.92 7.06 2.92 2.66 0 5.2-1.06 7.08-2.92l25.54-25.56z" fill="#E1E1E5" /><path d="M925.74 633.94c-14.54 20-38.12 33.02-64.66 33.02-44.08 0-79.92-35.86-79.92-79.92v-140.46c0-55.1-44.84-99.92-99.92-99.92H446.68V74.76l17.76 17.76v236.38H699c55.08 0 99.92 44.82 99.92 99.92v140.46c0 44.06 35.84 79.92 79.92 79.92 17.52 0 33.72-5.66 46.9-15.26z" opacity=".2" /><path d="M482.24 106.16c2.52 0 5.04-0.94 6.98-2.84l-17.66 17.68a10.044 10.044 0 0 1-14.16 0l-10.72-10.72V74.76l28.48 28.48c1.96 1.94 4.52 2.92 7.08 2.92zM567.48 106.16c2.5 0 5.02-0.94 6.96-2.84l-17.66 17.68c-1.96 1.94-4.52 2.92-7.06 2.92-2.56 0-5.12-0.98-7.08-2.92l-35.54-35.56 17.76-17.76 35.54 35.56c1.96 1.94 4.52 2.92 7.08 2.92zM652.7 106.16c2.66 0 5.2-1.06 7.08-2.92l-17.76 17.76c-1.88 1.86-4.42 2.92-7.08 2.92s-5.2-1.06-7.06-2.92l-35.56-35.56 17.76-17.76 35.56 35.56c1.86 1.86 4.4 2.92 7.06 2.92zM737.92 106.16c2.52 0 5.04-0.94 6.98-2.84l-17.66 17.68c-1.96 1.94-4.52 2.92-7.08 2.92-2.56 0-5.12-0.98-7.06-2.92l-35.54-35.54 17.76-17.76 35.54 35.54c1.94 1.94 4.5 2.92 7.06 2.92zM823.16 106.16c2.56 0 5.12-0.98 7.08-2.92l-17.76 17.76a10.044 10.044 0 0 1-14.16 0l-35.54-35.56 17.76-17.76 35.54 35.56c1.96 1.94 4.52 2.92 7.08 2.92zM915.34 103.36l-17.64 17.64c-1.88 1.86-4.42 2.92-7.08 2.92-2.64 0-5.2-1.06-7.06-2.92l-35.54-35.54 17.76-17.76 35.54 35.54c1.86 1.86 4.42 2.92 7.06 2.92 2.6 0 5.1-1.02 6.96-2.8z" fill="#FFFFFF" opacity=".4" /><path d="M801.18 666.96h-199.88V446.58c0-44.08 35.86-79.92 79.94-79.92 44.06 0 79.92 35.84 79.92 79.92v140.46c0 32.64 15.74 61.68 40.02 79.92z" fill="#636368" /><path d="M701.74 369.32c-34.18 9.08-59.44 40.26-59.44 77.26v220.38h-41V446.58c0-44.08 35.86-79.92 79.94-79.92 7.08 0 13.96 0.92 20.5 2.66z" opacity=".2" /><path d="M166.92 366.66c-44.06 0-79.92 35.84-79.92 79.92v513.88h494.3V677v-0.04-230.38c0-32.64 15.74-61.68 40.02-79.92H166.92z m240.36 171.54l15.68-27.14c2.76-4.78 8.88-6.42 13.66-3.66s6.42 8.88 3.66 13.66l-15.68 27.14c-1.84 3.22-5.2 5-8.66 5a10.004 10.004 0 0 1-8.66-15z m-83.14-48.26c0-5.52 4.48-10 10-10 5.54 0 10 4.48 10 10v31.34c0 5.52-4.46 10-10 10-5.52 0-10-4.48-10-10v-31.34z m-92.46 17.46a10.004 10.004 0 0 1 13.66 3.66l15.66 27.14c2.76 4.78 1.14 10.9-3.66 13.66-1.56 0.92-3.28 1.34-4.98 1.34-3.46 0-6.82-1.78-8.68-5l-15.66-27.14a10.004 10.004 0 0 1 3.66-13.66zM129.2 684.88c0-5.52 4.48-10 10-10h31.34c5.54 0 10 4.48 10 10 0 5.54-4.46 10-10 10H139.2c-5.52 0-10-4.46-10-10z m68.26 90.46l-27.14 15.68c-1.58 0.9-3.3 1.34-4.98 1.34-3.46 0-6.82-1.8-8.68-5a10.004 10.004 0 0 1 3.66-13.66l27.14-15.68a10 10 0 1 1 10 17.32z m3.66-167.26c-1.84 3.22-5.2 5-8.66 5-1.7 0-3.42-0.42-5-1.34l-27.14-15.66a10.004 10.004 0 0 1-3.66-13.66 10.004 10.004 0 0 1 13.66-3.66l27.14 15.66a10.004 10.004 0 0 1 3.66 13.66z m59.88 223.5l-15.66 27.14c-1.86 3.2-5.22 5-8.68 5-1.7 0-3.42-0.44-4.98-1.34a10.008 10.008 0 0 1-3.66-13.66l15.66-27.14a9.968 9.968 0 0 1 13.66-3.66 9.98 9.98 0 0 1 3.66 13.66z m83.14 48.24c0 2.78-1.12 5.26-2.94 7.08-1.8 1.8-4.3 2.92-7.06 2.92-5.52 0-10-4.48-10-10v-31.34c0.02-5.52 4.48-10 10-10h0.02c5.52 0 10 4.48 9.98 10v31.34z m92.48-17.44a10 10 0 0 1-13.66-3.66l-15.68-27.14c-2.76-4.8-1.12-10.92 3.68-13.66 4.78-2.78 10.88-1.14 13.66 3.66l15.66 27.14c2.76 4.78 1.12 10.9-3.66 13.66z m-102.48-46.44c-72.26 0-131.06-58.78-131.06-131.06 0-72.26 58.8-131.06 131.06-131.06 72.28 0 131.06 58.8 131.06 131.06 0 72.28-58.78 131.06-131.06 131.06z m136.7-221.52l27.14-15.66a10.004 10.004 0 0 1 13.66 3.66c2.76 4.78 1.12 10.9-3.66 13.66l-27.14 15.66c-1.58 0.92-3.3 1.34-5 1.34a9.992 9.992 0 0 1-5-18.66z m40.8 192.94a9.99 9.99 0 0 1-8.68 5c-1.7 0-3.42-0.42-4.98-1.34l-27.14-15.68a9.968 9.968 0 0 1-3.66-13.66 10 10 0 0 1 13.66-3.66l27.14 15.68a10.004 10.004 0 0 1 3.66 13.66z m17.46-92.46l-31.36-0.02c-5.52 0-10-4.46-10-10 0-2.76 1.12-5.26 2.94-7.08 1.8-1.8 4.3-2.92 7.06-2.92l31.36 0.02c5.52 0 10 4.46 10 10 0 5.52-4.48 10-10 10z" fill="#E1E1E5" /><path d="M166.92 366.66c-44.06 0-79.92 35.84-79.92 79.92v513.88h20.16V466.74c0-44.08 35.86-79.92 79.92-79.92H601.2c5.72-7.64 12.5-14.44 20.12-20.16H166.92z" fill="#FFFFFF" opacity=".4" /><path d="M380.86 713.4c0 20.62-16.32 37.46-36.72 38.4v22.12c0 5.52-4.48 10-10 10s-10-4.48-10-10v-22.02h-26.72c-5.54 0-10-4.48-10-10s4.46-10 10-10h36.66c0.02 0 0.04-0.02 0.06-0.02s0.04 0.02 0.06 0.02h8.16c10.2 0 18.5-8.3 18.5-18.5 0-10.22-8.3-18.52-18.5-18.52h-16.44c-21.24 0-38.5-17.26-38.5-38.5 0-20.62 16.32-37.48 36.72-38.4v-22.12c0-5.52 4.48-10 10-10s10 4.48 10 10v22.02h26.72c5.52 0 10 4.48 10 10s-4.48 10-10 10h-44.94c-10.2 0-18.5 8.3-18.5 18.5s8.3 18.5 18.5 18.5h16.44c21.22 0 38.5 17.28 38.5 38.52z" fill="#23130D" /><path d="M334.14 553.82c-72.26 0-131.06 58.8-131.06 131.06 0 72.28 58.8 131.06 131.06 131.06 72.28 0 131.06-58.78 131.06-131.06 0-72.26-58.78-131.06-131.06-131.06z m0 242.12c-61.24 0-111.06-49.82-111.06-111.06 0-61.22 49.82-111.06 111.06-111.06s111.06 49.84 111.06 111.06c0 61.24-49.82 111.06-111.06 111.06z" fill="#23130D" /><path d="M350.64 696.84l8.26 8.26a18.64 18.64 0 0 0-8.26-8.26z m-16.5-123.02h-0.68c-18.74 0.12-36.38 4.9-51.84 13.22a111.728 111.728 0 0 0-23.66 17.12 111.386 111.386 0 0 0-17.7 21.44 112.78 112.78 0 0 0-6.98 12.8 110.18 110.18 0 0 0-10.06 40.86c-0.1 1.86-0.14 3.74-0.14 5.62 0 61.24 49.82 111.06 111.06 111.06 1.88 0 3.76-0.04 5.62-0.14 14.54-0.72 28.32-4.26 40.86-10.06a111.89 111.89 0 0 0 34.26-24.66 111.96 111.96 0 0 0 17.1-23.68 110.572 110.572 0 0 0 13.22-51.84v-0.68c0-61.22-49.82-111.06-111.06-111.06zM307.6 653.8c-0.12 0.84-0.18 1.7-0.18 2.58 0 10.2 8.3 18.5 18.5 18.5h16.44c21.22 0 38.5 17.28 38.5 38.52 0 4.12-0.64 8.08-1.86 11.8a38.552 38.552 0 0 1-17.56 21.58 38.182 38.182 0 0 1-14.96 4.82c-0.78 0.1-1.56 0.16-2.34 0.2v22.12c0 5.52-4.48 10-10 10s-10-4.48-10-10v-22.02h-26.72c-0.6 0-1.16-0.06-1.72-0.16a9.924 9.924 0 0 1-8.12-8.12c-0.1-0.56-0.16-1.14-0.16-1.72 0-5.52 4.46-10 10-10h36.66c0.02 0 0.04-0.02 0.06-0.02s0.04 0.02 0.06 0.02h8.16c1.3 0 2.58-0.14 3.8-0.4 8.38-1.76 14.7-9.2 14.7-18.1 0-2.98-0.7-5.8-1.96-8.3a18.64 18.64 0 0 0-8.26-8.26 18.3 18.3 0 0 0-8.28-1.96h-16.44c-21.24 0-38.5-17.26-38.5-38.5 0-6.56 1.66-12.76 4.58-18.18 4.72-8.74 12.7-15.44 22.32-18.46 3.12-1 6.42-1.6 9.82-1.76v-22.12c0-5.52 4.48-10 10-10s10 4.48 10 10v22.02h26.72c5.52 0 10 4.48 10 10s-4.48 10-10 10h-44.94c-9.32 0-17.06 6.94-18.32 15.92z" fill="#F9C139" /><path d="M334.14 577.82c59.034 0 107.06 48.026 107.06 107.06v0.654a107.276 107.276 0 0 1-12.74 49.966 107.906 107.906 0 0 1-16.484 22.828 107.836 107.836 0 0 1-33.036 23.78 105.852 105.852 0 0 1-39.396 9.696c-1.68 0.09-3.448 0.134-5.406 0.134-59.034 0-107.06-48.026-107.06-107.06 0-1.956 0.044-3.724 0.136-5.422a105.816 105.816 0 0 1 9.694-39.374 109.19 109.19 0 0 1 6.728-12.34 107.378 107.378 0 0 1 17.072-20.678 107.66 107.66 0 0 1 22.806-16.502 107.234 107.234 0 0 1 49.944-12.742h0.682m-14 36.514a41.67 41.67 0 0 0-7.018 1.588c-10.59 3.324-19.342 10.56-24.644 20.38a42.458 42.458 0 0 0-5.058 20.078c0 23.434 19.066 42.5 42.5 42.5h16.44c2.078 0 4.072 0.428 5.934 1.27l7.294 7.294c0.844 1.864 1.272 3.864 1.272 5.954 0 6.818-4.846 12.784-11.534 14.188a14.2 14.2 0 0 1-2.966 0.312h-7.234l-0.04-0.02h-0.944l-0.974 0.01-0.02 0.01H297.42c-7.72 0-14 6.28-14 14 0 0.782 0.074 1.598 0.216 2.386a13.9 13.9 0 0 0 11.36 11.39c0.838 0.15 1.63 0.222 2.424 0.222h22.72v18.02c0 7.72 6.28 14 14 14s14-6.28 14-14v-18.49a42.028 42.028 0 0 0 15.284-5.178c9.25-5.286 16.132-13.746 19.376-23.806a41.8 41.8 0 0 0 2.06-13.046c0-23.446-19.066-42.52-42.5-42.52h-16.44c-7.996 0-14.5-6.504-14.5-14.5 0-0.688 0.048-1.366 0.142-2.024 0.998-7.112 7.17-12.476 14.358-12.476h44.94c7.72 0 14-6.28 14-14s-6.28-14-14-14h-22.72v-18.02c0-7.72-6.28-14-14-14s-14 6.28-14 14v18.478m14-40.514h-0.68c-18.74 0.12-36.38 4.9-51.84 13.22a111.728 111.728 0 0 0-23.66 17.12 111.386 111.386 0 0 0-17.7 21.44 112.78 112.78 0 0 0-6.98 12.8 110.18 110.18 0 0 0-10.06 40.86c-0.1 1.86-0.14 3.74-0.14 5.62 0 61.24 49.82 111.06 111.06 111.06 1.88 0 3.76-0.04 5.62-0.14 14.54-0.72 28.32-4.26 40.86-10.06a111.89 111.89 0 0 0 34.26-24.66 111.96 111.96 0 0 0 17.1-23.68 110.572 110.572 0 0 0 13.22-51.84v-0.68c0-61.22-49.82-111.06-111.06-111.06z m-8.22 121.06c-21.24 0-38.5-17.26-38.5-38.5 0-6.56 1.66-12.76 4.58-18.18 4.72-8.74 12.7-15.44 22.32-18.46 3.12-1 6.42-1.6 9.82-1.76v-22.12c0-5.52 4.48-10 10-10s10 4.48 10 10v22.02h26.72c5.52 0 10 4.48 10 10s-4.48 10-10 10h-44.94c-9.32 0-17.06 6.94-18.32 15.92-0.12 0.84-0.18 1.7-0.18 2.58 0 10.2 8.3 18.5 18.5 18.5h16.44c21.22 0 38.5 17.28 38.5 38.52 0 4.12-0.64 8.08-1.86 11.8a38.552 38.552 0 0 1-17.56 21.58 38.182 38.182 0 0 1-14.96 4.82c-0.78 0.1-1.56 0.16-2.34 0.2v22.12c0 5.52-4.48 10-10 10s-10-4.48-10-10v-22.02h-26.72c-0.6 0-1.16-0.06-1.72-0.16a9.924 9.924 0 0 1-8.12-8.12c-0.1-0.56-0.16-1.14-0.16-1.72 0-5.52 4.46-10 10-10h36.66c0.02 0 0.04-0.02 0.06-0.02 0.02 0 0.04 0.02 0.06 0.02h8.16c1.3 0 2.58-0.14 3.8-0.4 8.38-1.76 14.7-9.2 14.7-18.1 0-2.98-0.7-5.8-1.96-8.3l-8.26-8.26a18.3 18.3 0 0 0-8.28-1.96h-16.44z m24.72 1.96z" opacity=".2" /><path d="M344.14 489.94v31.34c0 5.52-4.46 10-10 10-5.52 0-10-4.48-10-10v-31.34c0-5.52 4.48-10 10-10 5.54 0 10 4.48 10 10zM257.34 551.86c-1.56 0.92-3.28 1.34-4.98 1.34-3.46 0-6.82-1.78-8.68-5l-15.66-27.14a10.004 10.004 0 0 1 3.66-13.66 10.004 10.004 0 0 1 13.66 3.66l15.66 27.14c2.76 4.78 1.14 10.9-3.66 13.66zM201.12 608.08c-1.84 3.22-5.2 5-8.66 5-1.7 0-3.42-0.42-5-1.34l-27.14-15.66a10.004 10.004 0 0 1-3.66-13.66 10.004 10.004 0 0 1 13.66-3.66l27.14 15.66a10.004 10.004 0 0 1 3.66 13.66zM180.54 684.88c0 5.54-4.46 10-10 10H139.2c-5.52 0-10-4.46-10-10 0-5.52 4.48-10 10-10h31.34c5.54 0 10 4.48 10 10zM197.46 775.34l-27.14 15.68c-1.58 0.9-3.3 1.34-4.98 1.34-3.46 0-6.82-1.8-8.68-5a10.004 10.004 0 0 1 3.66-13.66l27.14-15.68a10 10 0 1 1 10 17.32zM261 831.58l-15.66 27.14c-1.86 3.2-5.22 5-8.68 5-1.7 0-3.42-0.44-4.98-1.34a10.008 10.008 0 0 1-3.66-13.66l15.66-27.14a9.968 9.968 0 0 1 13.66-3.66 9.98 9.98 0 0 1 3.66 13.66zM344.14 848.48v31.34c0 2.78-1.12 5.26-2.94 7.08-1.8 1.8-4.3 2.92-7.06 2.92-5.52 0-10-4.48-10-10v-31.34c0.02-5.52 4.48-10 10-10h0.02c5.52 0 10 4.48 9.98 10zM436.62 862.38a10 10 0 0 1-13.66-3.66l-15.68-27.14c-2.76-4.8-1.12-10.92 3.68-13.66 4.78-2.78 10.88-1.14 13.66 3.66l15.66 27.14c2.76 4.78 1.12 10.9-3.66 13.66zM511.64 787.36a9.99 9.99 0 0 1-8.68 5c-1.7 0-3.42-0.42-4.98-1.34l-27.14-15.68a9.968 9.968 0 0 1-3.66-13.66 10 10 0 0 1 13.66-3.66l27.14 15.68a10.004 10.004 0 0 1 3.66 13.66zM539.1 684.9c0 5.52-4.48 10-10 10l-31.36-0.02c-5.52 0-10-4.46-10-10 0-2.76 1.12-5.26 2.94-7.08 1.8-1.8 4.3-2.92 7.06-2.92l31.36 0.02c5.52 0 10 4.46 10 10zM507.98 596.08l-27.14 15.66c-1.58 0.92-3.3 1.34-5 1.34a9.992 9.992 0 0 1-5-18.66l27.14-15.66a10.004 10.004 0 0 1 13.66 3.66c2.76 4.78 1.12 10.9-3.66 13.66zM440.28 521.06l-15.68 27.14c-1.84 3.22-5.2 5-8.66 5a10.004 10.004 0 0 1-8.66-15l15.68-27.14c2.76-4.78 8.88-6.42 13.66-3.66s6.42 8.88 3.66 13.66z" fill="#23130D" /><path d="M287.42 741.9c0 0.58 0.06 1.16 0.16 1.72l-64.36-64.36a110.18 110.18 0 0 1 10.06-40.86l93.5 93.5h-29.36c-5.54 0-10 4.48-10 10zM380.62 785.74a110.082 110.082 0 0 1-40.86 10.06l-44.06-44.06c0.56 0.1 1.12 0.16 1.72 0.16h26.72v22.02c0 5.52 4.48 10 10 10s10-4.48 10-10V751.8c0.78-0.04 1.56-0.1 2.34-0.2l34.14 34.14zM307.42 656.38c0-0.88 0.06-1.74 0.18-2.58l21.08 21.08h-2.76c-10.2 0-18.5-8.3-18.5-18.5z" fill="#FFFFFF" opacity=".4" /><path d="M360.86 713.4c0 8.9-6.32 16.34-14.7 18.1l-105.9-105.9c5-7.88 10.96-15.1 17.7-21.44L292 638.2a38.246 38.246 0 0 0-4.58 18.18c0 21.24 17.26 38.5 38.5 38.5h16.44c2.98 0 5.78 0.7 8.28 1.96l8.26 8.26c1.26 2.5 1.96 5.32 1.96 8.3zM414.88 761.08a111.89 111.89 0 0 1-21.46 17.68l-31.98-31.98c8.26-4.72 14.6-12.4 17.56-21.58l35.88 35.88zM445.2 685.56a110.572 110.572 0 0 1-13.22 51.84l-99.52-99.52h38.4c5.52 0 10-4.48 10-10s-4.48-10-10-10h-26.72v-22.02c0-5.52-4.48-10-10-10s-10 4.48-10 10v22.12c-3.4 0.16-6.7 0.76-9.82 1.76l-32.7-32.7a110.572 110.572 0 0 1 51.84-13.22l111.74 111.74z" fill="#FFFFFF" opacity=".4" /><path d="M240.26 694.88a10 10 0 0 1-10-10c0-57.28 46.6-103.88 103.88-103.88a10 10 0 1 1 0 20c-46.252 0-83.88 37.628-83.88 83.88a10 10 0 0 1-10 10z" fill="#FFFFFF" opacity=".8" /></svg>