<svg class="svg-icon" style="width: 1em; height: 1em;vertical-align: middle;fill: currentColor;overflow: hidden;" viewBox="0 0 1024 1024" version="1.1" xmlns="http://www.w3.org/2000/svg"><path d="M899.384217 884.341364H201.301034v101.097013h692.785235c-2.877972-28.605721-3.881962-57.565438 5.297948-101.097013z" fill="#F58E70" /><path d="M899.384217 0H168.325356a6.615935 6.615935 0 0 0-6.615935 6.615935v101.881005a6.615935 6.615935 0 0 0 6.615935 6.615936h63.323382c2.781973 0 5.395947 1.079989 7.357928 3.04397a10.333899 10.333899 0 0 1 3.04397 7.357928c0 5.761944-4.665954 10.449898-10.399898 10.449898H168.325356a6.615935 6.615935 0 0 0-6.615935 6.615936v112.350902a6.615935 6.615935 0 0 0 6.615935 6.615936h63.323382c2.781973 0 5.395947 1.079989 7.357928 3.04397a10.333899 10.333899 0 0 1 3.04397 7.357928 10.415898 10.415898 0 0 1-10.399898 10.405899H168.325356a6.615935 6.615935 0 0 0-6.615935 6.615935v112.348903a6.615935 6.615935 0 0 0 6.615935 6.615935h63.323382c2.781973 0 5.381947 1.083989 7.391928 3.12397 1.939981 1.911981 3.007971 4.511956 3.00797 7.323928a10.413898 10.413898 0 0 1-10.399898 10.403899H168.325356a6.615935 6.615935 0 0 0-6.615935 6.615935v112.348903a6.615935 6.615935 0 0 0 6.615935 6.615935h63.323382c2.751973 0 5.377947 1.093989 7.325928 3.009971a10.539897 10.539897 0 0 1 3.07597 7.435927 10.413898 10.413898 0 0 1-10.399898 10.403899H168.325356a6.615935 6.615935 0 0 0-6.615935 6.615935v112.348903a6.615935 6.615935 0 0 0 6.615935 6.615935h63.323382c2.781973 0 5.395947 1.079989 7.357928 3.043971a10.333899 10.333899 0 0 1 3.04397 7.357928c0 5.761944-4.665954 10.449898-10.399898 10.449898H168.325356a6.615935 6.615935 0 0 0-6.615935 6.615935v156.072476a6.615935 6.615935 0 0 0 6.615935 6.615935h731.058861a6.613935 6.613935 0 0 0 6.615935-6.615935V6.615935A6.613935 6.613935 0 0 0 899.384217 0z m-6.615935 877.723428H174.943292v-142.838605h56.707446c13.031873 0 23.633769-10.623896 23.633769-23.681768 0-6.317938-2.457976-12.25588-6.917932-16.711837a23.461771 23.461771 0 0 0-16.715837-6.921933H174.943292v-99.117032h56.707446c13.031873 0 23.633769-10.603896 23.633769-23.637769 0-6.283939-2.445976-12.223881-6.951932-16.793836-4.503956-4.441957-10.429898-6.885933-16.681837-6.885933H174.943292v-99.117032h56.707446c13.031873 0 23.633769-10.603896 23.633769-23.637769 0-6.291939-2.533975-12.397879-6.883933-16.679837a23.323772 23.323772 0 0 0-16.749836-6.999931H174.943292v-99.117033h56.707446c13.031873 0 23.633769-10.603896 23.633769-23.637769 0-6.317938-2.457976-12.25588-6.917932-16.713836a23.475771 23.475771 0 0 0-16.715837-6.919933H174.943292V149.196543h56.707446c13.031873 0 23.633769-10.623896 23.633769-23.681769 0-6.317938-2.457976-12.25588-6.917932-16.713837a23.479771 23.479771 0 0 0-16.715837-6.919932H174.943292V13.233871h717.82699v864.489557z" fill="#4B555F" /><path d="M191.385131 29.67771v55.759456h40.263607a39.825611 39.825611 0 0 1 28.343723 11.735885 39.829611 39.829611 0 0 1 11.733885 28.343723c0 22.125784-17.979824 40.125608-40.077608 40.125608H191.385131v66.229354h40.263607a39.825611 39.825611 0 0 1 28.343723 11.735885 39.825611 39.825611 0 0 1 11.733885 28.343723c0 22.101784-17.979824 40.081609-40.077608 40.081609H191.385131v66.229353h40.263607c10.795895 0 20.905796 4.227959 28.223724 11.663886 7.531926 7.421928 11.853884 17.797826 11.853884 28.459722 0 22.101784-17.979824 40.081609-40.077608 40.081609H191.385131v66.229353h40.263607c10.597897 0 20.621799 4.12596 28.459722 11.853884 7.491927 7.599926 11.617887 17.639828 11.617886 28.269724 0 22.101784-17.979824 40.081609-40.077608 40.081609H191.385131v66.229353h40.263607c10.713895 0 20.783797 4.167959 28.343723 11.735885a39.829611 39.829611 0 0 1 11.733885 28.343724c0 22.125784-17.979824 40.125608-40.077608 40.125608H191.385131v109.950926h122.110808V29.67771H191.385131zM357.789506 29.67771v831.603879h518.534936V29.67771h-518.534936z m249.83556 612.252021c-100.405019 0-181.854224-81.449205-181.854224-181.900223 0-100.453019 81.449205-181.854224 181.854224-181.854225 100.451019 0 181.900224 81.403205 181.900224 181.854225 0 100.449019-81.449205 181.900224-181.900224 181.900223z" fill="#71CBDF" /><path d="M231.650738 101.873005H113.005896c-16.705837 0-32.597682 7.927923-42.513584 21.205793-15.673847 20.985795-15.785846 41.225597-15.715847 44.111569-0.083999 3.229968 0.185998 22.745778 17.591828 45.275558 9.699905 12.557877 25.255753 20.055804 41.605594 20.055804h60.983404V185.220191H125.543774c-9.615906 0-17.799826-7.009932-18.627818-15.951844a22.459781 22.459781 0 0 1 0-4.13796c0.829992-8.947913 9.011912-15.955844 18.627818-15.955844h106.106964c13.041873 0 23.651769-10.609896 23.651769-23.651769-0.002-13.039873-10.611896-23.649769-23.651769-23.649769z m0 34.067667H125.543774c-16.37984 0-30.349704 12.28588-31.805689 27.973727a36.465644 36.465644 0 0 0 0 6.571936c1.453986 15.683847 15.425849 27.967727 31.805689 27.967727h36.179647v20.837796H113.971887c-12.28188 0-23.919766-5.575946-31.133696-14.913854-15.36985-19.891806-14.839855-36.721641-14.833855-36.88964l0.01-0.319997-0.01-0.279997c-0.008-0.173998-0.573994-17.595828 13.085872-35.891649 7.429927-9.949903 19.359811-15.889845 31.913688-15.889845h118.644842c5.743944 0 10.417898 4.671954 10.417898 10.415898s-4.671954 10.417898-10.415898 10.417898zM231.650738 248.297575H113.005896c-16.707837 0-32.599682 7.927923-42.513584 21.205793-15.671847 20.981795-15.785846 41.227597-15.715847 44.111569-0.085999 3.229968 0.183998 22.743778 17.591828 45.275558 9.699905 12.557877 25.255753 20.055804 41.605594 20.055804h60.983404v-47.303538H125.543774c-9.615906 0-17.799826-7.007932-18.627818-15.949844a22.50178 22.50178 0 0 1 0-4.13996c0.829992-8.947913 9.011912-15.955844 18.627818-15.955844h106.106964c13.041873 0 23.651769-10.609896 23.651769-23.651769-0.002-13.037873-10.611896-23.647769-23.651769-23.647769z m0 34.067668H125.543774c-16.37984 0-30.349704 12.28588-31.805689 27.973726a36.465644 36.465644 0 0 0 0 6.571936c1.455986 15.681847 15.425849 27.965727 31.805689 27.965727h36.179647v20.837797H113.971887c-12.28188 0-23.919766-5.575946-31.133696-14.913855-15.36985-19.893806-14.839855-36.721641-14.833855-36.88764l0.01-0.319996-0.01-0.281998c-0.008-0.173998-0.577994-17.595828 13.085872-35.891649 7.429927-9.949903 19.359811-15.889845 31.913688-15.889845h118.644842c5.743944 0 10.417898 4.671954 10.417898 10.415898s-4.671954 10.419898-10.415898 10.419899zM231.650738 394.722145H113.005896c-16.705837 0-32.597682 7.927923-42.513584 21.205793-15.671847 20.981795-15.785846 41.229597-15.715847 44.113569-0.085999 3.229968 0.183998 22.743778 17.591828 45.275558 9.699905 12.557877 25.255753 20.057804 41.605594 20.057804h60.983404v-47.303538H125.543774c-9.615906 0-17.799826-7.007932-18.627818-15.949844a22.50178 22.50178 0 0 1 0-4.139959c0.829992-8.947913 9.011912-15.957844 18.627818-15.957845h106.106964c13.041873 0 23.651769-10.609896 23.651769-23.649769-0.002-13.041873-10.611896-23.651769-23.651769-23.651769z m0 34.067668H125.543774c-16.37984 0-30.349704 12.28588-31.805689 27.973726a36.465644 36.465644 0 0 0 0 6.571936c1.455986 15.683847 15.425849 27.967727 31.805689 27.967727h36.179647v20.837797H113.971887c-12.28188 0-23.917766-5.575946-31.133696-14.913855-15.36985-19.893806-14.839855-36.721641-14.833855-36.88764l0.01-0.319996-0.01-0.281998c-0.008-0.173998-0.577994-17.595828 13.085872-35.891649 7.429927-9.949903 19.359811-15.889845 31.913688-15.889845h118.644842a10.429898 10.429898 0 0 1 10.417898 10.417898 10.425898 10.425898 0 0 1-10.415898 10.415899zM231.650738 541.146715H113.005896c-16.705837 0-32.597682 7.927923-42.513584 21.205793-15.671847 20.981795-15.785846 41.229597-15.715847 44.113569-0.085999 3.229968 0.183998 22.743778 17.591828 45.277558 9.703905 12.557877 25.255753 20.055804 41.605594 20.055804h60.983404v-47.303538H125.543774c-9.615906 0-17.799826-7.009932-18.627818-15.951844a22.50178 22.50178 0 0 1 0-4.139959c0.829992-8.947913 9.011912-15.957844 18.627818-15.957845h106.106964c13.041873 0 23.651769-10.609896 23.651769-23.649769-0.002-13.039873-10.611896-23.649769-23.651769-23.649769z m0 34.067668H125.543774c-16.37984 0-30.349704 12.28588-31.805689 27.973726a36.465644 36.465644 0 0 0 0 6.571936c1.455986 15.683847 15.425849 27.967727 31.805689 27.967727h36.179647v20.837797H113.971887c-12.28188 0-23.917766-5.575946-31.133696-14.913855-15.36985-19.895806-14.839855-36.721641-14.833855-36.889639l0.01-0.319997-0.01-0.281998c-0.008-0.173998-0.577994-17.595828 13.085872-35.891649 7.429927-9.949903 19.359811-15.889845 31.913688-15.889845h118.644842a10.429898 10.429898 0 0 1 10.417898 10.417898 10.425898 10.425898 0 0 1-10.415898 10.417899zM231.650738 687.571285H113.005896c-16.705837 0-32.597682 7.927923-42.513584 21.205793-15.671847 20.981795-15.785846 41.227597-15.715847 44.11157-0.085999 3.229968 0.183998 22.743778 17.591828 45.275557 9.699905 12.557877 25.255753 20.057804 41.605594 20.057805h60.983404v-47.303539H125.543774c-9.615906 0-17.799826-7.009932-18.627818-15.951844a22.459781 22.459781 0 0 1 0-4.137959c0.829992-8.947913 9.011912-15.955844 18.627818-15.955844h106.106964c13.041873 0 23.651769-10.609896 23.651769-23.65177-0.002-13.039873-10.611896-23.649769-23.651769-23.649769z m0 34.069668H125.543774c-16.37984 0-30.349704 12.28388-31.805689 27.971727a36.465644 36.465644 0 0 0 0 6.571935c1.455986 15.683847 15.425849 27.967727 31.805689 27.967727h36.179647v20.837797H113.971887c-12.28188 0-23.917766-5.575946-31.133696-14.913855-15.36985-19.893806-14.839855-36.721641-14.833855-36.887639l0.01-0.319997-0.01-0.281997c-0.008-0.173998-0.577994-17.595828 13.085872-35.89165 7.429927-9.949903 19.359811-15.889845 31.913688-15.889845h118.644842c5.743944 0 10.417898 4.673954 10.417898 10.417898s-4.671954 10.417898-10.415898 10.417899zM905.814154 885.80935a6.623935 6.623935 0 0 0-6.449937-8.093921H168.339356a6.613935 6.613935 0 0 0-6.615935 6.615935v133.040701a6.615935 6.615935 0 0 0 6.615935 6.615935h731.024861a6.613935 6.613935 0 0 0 6.407938-8.267919c-0.157998-0.609994-15.529848-61.885396 0.041999-129.910731z m-14.677857 124.946779H174.955291v-119.80683h716.233006c-10.639896 53.791475-3.705964 101.213012-0.052 119.80683z" fill="#4B555F" /><path d="M904.402168 880.025406a6.613935 6.613935 0 0 0-5.015951-2.301978H201.301034a6.613935 6.613935 0 0 0-6.615935 6.615936v101.097013a6.615935 6.615935 0 0 0 6.615935 6.615935h692.785235a6.611935 6.611935 0 0 0 6.603935-7.027931c-2.939971-47.08154-1.375987-57.111442 3.261968-86.883152 0.607994-3.897962 1.265988-8.127921 1.975981-12.811875a6.633935 6.633935 0 0 0-1.525985-5.303948z m-13.523868 16.077843c-4.563955 29.287714-6.251939 40.131608-3.815963 82.717192H207.91697v-87.863142h683.761322l-0.799992 5.14595z" fill="#4B555F" /><path d="M201.301034 910.629107h596.828172v13.233871H201.301034zM289.288175 944.236779h596.826172v13.233871H289.288175zM330.005777 597.812162h13.231871v-13.233871h-13.231871v13.233871z m0 26.465742h13.231871v-13.233871h-13.231871v13.233871z m0 26.465741h13.231871v-13.233871h-13.231871v13.233871z m0-132.330708h13.231871v-13.23387h-13.231871v13.23387z m0 158.79645h13.231871v-13.233871h-13.231871v13.233871z m0-185.262191h13.231871v-13.233871h-13.231871v13.233871z m0 52.931483h13.231871v-13.233871h-13.231871v13.233871z m0 26.465741h13.231871v-13.23387h-13.231871v13.23387z m0 238.195674h13.231871v-13.23387h-13.231871v13.23387z m0 52.931483h13.231871v-13.23387h-13.231871v13.23387z m0-26.465741h13.231871v-13.233871h-13.231871v13.233871z m0 48.333528h13.231871v-8.635916h-13.231871v8.635916z m0-154.198494h13.231871v-13.233871h-13.231871v13.233871z m0-26.465742h13.231871v-13.233871h-13.231871v13.233871z m0 79.399225h13.231871v-13.233871h-13.231871v13.233871z m0-26.467742h13.231871v-13.23387h-13.231871v13.23387z m0-291.125157h13.231871v-13.23387h-13.231871v13.23387z m0-291.127157h13.231871v-13.23387h-13.231871v13.23387z m0-26.465741h13.231871v-13.233871h-13.231871v13.233871z m0 52.933483h13.231871v-13.233871h-13.231871v13.233871z m0 26.465741h13.231871v-13.23387h-13.231871v13.23387z m0-105.864966h13.231871v-13.233871h-13.231871v13.233871z m0-92.631095v13.233871h13.231871v-13.233871h-13.231871z m0 39.699612h13.231871v-13.233871h-13.231871v13.233871z m0 26.465742h13.231871v-13.233871h-13.231871v13.233871z m0 158.796449h13.231871v-13.233871h-13.231871v13.233871z m0 132.330708h13.231871v-13.233871h-13.231871v13.233871z m0 26.465741h13.231871v-13.233871h-13.231871v13.233871z m0-52.933483h13.231871v-13.233871h-13.231871v13.233871z m0 79.399225h13.231871v-13.233871h-13.231871v13.233871z m0-158.79645h13.231871v-13.23387h-13.231871v13.23387z m0 52.931484h13.231871v-13.233871h-13.231871v13.233871z m0-26.465742h13.231871v-13.233871h-13.231871v13.233871zM661.444541 328.616791c-15.271851-15.271851-35.581653-23.681769-57.179442-23.681769-44.587565 0.002-80.86521 36.279646-80.86521 80.86721 0 21.599789 8.409918 41.905591 23.685768 57.177442 15.271851 15.271851 35.579653 23.681769 57.179442 23.681769 44.587565-0.002 80.86321-36.279646 80.86321-80.867211 0-21.597789-8.409918-41.903591-23.683768-57.177441z m-57.179442 124.812781c-18.065824 0.002-35.049658-7.033931-47.823533-19.805807-12.773875-12.773875-19.807807-29.755709-19.807807-47.821533 0-37.291636 30.339704-67.63134 67.63134-67.633339 18.065824-0.002 35.049658 7.033931 47.821533 19.805806 12.773875 12.773875 19.809807 29.755709 19.809807 47.821533-0.002 37.289636-30.339704 67.63134-67.63134 67.63334z" fill="#4B555F" /><path d="M640.460746 349.602586c-9.667906-9.665906-22.52178-14.989854-36.193647-14.989854-28.225724 0.002-51.1895 22.965776-51.1895 51.1895 0 13.671866 5.323948 26.525741 14.991853 36.193647 9.667906 9.665906 22.52178 14.989854 36.193647 14.989854 28.227724 0 51.1895-22.965776 51.1895-51.191501 0.002-13.671866-5.323948-26.523741-14.991853-36.191646z" fill="#FFD351" /><path d="M773.615445 545.460673c-15.831845-54.173471-66.365352-92.009101-122.8908-92.009101h-86.191158c-56.451449 0-106.966955 37.833631-122.8448 92.005101l-0.769993 2.633975 1.317987 2.405976c33.127676 60.483409 96.501058 98.055042 165.392385 98.055042 68.917327 0 132.308708-37.571633 165.436385-98.055042l1.317987-2.403976-0.767993-2.631975z m-165.986379 89.855123c-63.131383 0-121.282816-33.937669-152.438511-88.761133 15.071853-47.167539 59.641418-79.87122 109.342932-79.87122h86.191158c49.767514 0 94.355079 32.703681 109.386932 79.86922-31.153696 54.823465-89.323128 88.763133-152.482511 88.763133z" fill="#4B555F" /><path d="M650.728645 483.119282h-86.181158c-40.169608 0-76.421254 24.923757-91.249109 61.657398a159.132446 159.132446 0 0 0 8.15592 11.673886l1.425986 1.867982c28.003727 35.455654 69.63132 57.34944 114.852879 60.193412 2.975971 0.223998 6.219939 0.333997 9.921903 0.333997 1.587984 0 3.207969-0.032 4.999951-0.099999 20.841796-0.617994 41.0056-5.237949 59.931415-13.733866 28.521721-14.175862 49.313518-34.993658 61.673397-49.887513a210.655943 210.655943 0 0 0 6.011942-7.663925c0.583994-0.871991 1.161989-1.761983 1.741983-2.673974-14.821855-36.741641-51.089501-61.667398-91.285109-61.667398z" fill="#DFDFDE" /><path d="M581.117325 460.045507l14.37186 33.931669h19.127813l14.107862-33.931669z" fill="#F58E70" /><path d="M614.642998 493.975176h-19.147813l-22.223783 116.550862 22.729778 30.983697c3.835963 0.289997 7.745924 0.397996 11.655886 0.397996 1.881982 0 3.799963-0.036 5.681944-0.107999l21.969786-30.875698c-6.513936-40.141608-20.665798-116.948858-20.665798-116.948858z" fill="#F58E70" /><path d="M571.129423 453.429572l19.977804 47.163539h27.925728l19.607808-47.163539h-67.51134z m39.071618 33.931669h-10.329899l-8.767914-20.697798h27.705729l-8.607916 20.697798z" fill="#4B555F" /><path d="M641.838732 609.862044c-6.449937-39.751612-20.547799-116.316864-20.689798-117.086856l-0.99799-5.417947H590.019238l-23.785768 124.756781 26.235744 35.759651 3.035971 0.229998c3.703964 0.281997 7.679925 0.417996 12.153881 0.417996 1.965981 0 3.971961-0.038 5.935942-0.113999l3.249968-0.123999 25.431752-35.741651-0.437996-2.679974z m-31.977688 25.409752a154.388492 154.388492 0 0 1-10.355899-0.173998l-19.197812-26.163745 20.659798-108.342942h8.15992c3.249968 17.737827 13.653867 74.835269 19.211813 108.710939l-18.47782 25.969746z" fill="#4B555F" /><path d="M607.647066 271.557348c-103.934985 0-188.490159 84.557174-188.490159 188.492159 0 103.934985 84.557174 188.492159 188.490159 188.49216 103.934985 0 188.492159-84.557174 188.492159-188.49216 0-103.934985-84.557174-188.492159-188.492159-188.492159z m0 363.750448c-96.637056 0-175.258288-78.621232-175.258289-175.258289 0-96.639056 78.621232-175.258288 175.258289-175.258288 96.639056 0 175.260288 78.621232 175.260288 175.258288 0 96.637056-78.621232 175.258288-175.260288 175.258289zM892.768282 0.249998v360.35248l76.447253-73.881278V74.137276L892.768282 0.249998z m63.215382 280.857257l-49.981512 48.305528V31.443693l49.981512 48.305528v201.358034z" fill="#4B555F" /><path d="M922.443992 70.205314v220.447848l17.095833-16.521839V86.727153z" fill="#DFDFDE" /><path d="M892.768282 342.192658v182.982213l76.463253-73.887278v-182.982213l-76.463253 73.887278z m63.231382 103.47699l-49.999512 48.313528v-146.176573l49.999512-48.313528v146.176573z" fill="#4B555F" /><path d="M922.443992 354.782535v100.445019l17.111833-16.533838v-100.445019z" fill="#FFD351" /><path d="M892.768282 506.771051v182.986213l76.463253-73.891278v-182.982213l-76.463253 73.887278z m63.231382 103.47899l-49.999512 48.315528v-146.180573l49.999512-48.313528v146.178573z" fill="#4B555F" /><path d="M922.443992 519.362928v100.445019l17.111833-16.533838v-100.445019z" fill="#F58E70" /><path d="M892.768282 671.353444v182.982213l76.463253-73.891279v-182.982213l-76.463253 73.891279z m63.231382 103.476989l-49.999512 48.317528v-146.178572l49.999512-48.315528v146.176572z" fill="#4B555F" /><path d="M922.443992 683.945321v100.443019l17.111833-16.533839v-100.443019z" fill="#71CBDF" /></svg>