<?xml version="1.0" encoding="utf-8"?>
<!-- Generator: Adobe Illustrator 26.0.2, SVG Export Plug-In . SVG Version: 6.00 Build 0)  -->
<svg version="1.1" id="Layer_1" xmlns="http://www.w3.org/2000/svg" xmlns:xlink="http://www.w3.org/1999/xlink" x="0px" y="0px"
	 viewBox="0 0 243.3 20.9" style="enable-background:new 0 0 243.3 20.9;" xml:space="preserve">
<style type="text/css">
	.st0{fill:#FFFFFF;}
	.st1{fill:none;stroke:#170E3E;stroke-width:1.9764;stroke-linecap:round;stroke-linejoin:round;stroke-miterlimit:10;}
	.st2{fill:#C862FF;}
	.st3{fill:none;stroke:#170E3E;stroke-width:1.9764;stroke-linejoin:round;stroke-miterlimit:10;}
	.st4{fill:none;stroke:#170E3E;stroke-width:1.9764;stroke-miterlimit:10;}
	.st5{fill:#FFFFFF;stroke:#170E3E;stroke-width:1.9764;stroke-miterlimit:10;}
	.st6{fill:#00FFD4;}
	.st7{fill:#170E3E;}
	.st8{fill:#FFFFFF;stroke:#170E3E;stroke-width:1.9764;stroke-linecap:round;stroke-linejoin:round;stroke-miterlimit:10;}
	.st9{fill:#170E3E;stroke:#17103F;stroke-width:1.9764;stroke-miterlimit:10;}
	.st10{opacity:0.51;fill:#FFFFFF;}
	.st11{fill:#19103E;}
	.st12{fill:none;stroke:#19103E;stroke-width:1.4521;stroke-linecap:round;stroke-linejoin:round;stroke-miterlimit:10;}
	.st13{fill:#9E6EAF;}
	.st14{fill:none;stroke:#19103E;stroke-width:1.4521;stroke-linejoin:round;stroke-miterlimit:10;}
	.st15{fill:none;stroke:#19103E;stroke-width:1.4521;stroke-miterlimit:10;}
	.st16{fill:#FFFFFF;stroke:#19103E;stroke-width:1.4521;stroke-miterlimit:10;}
	.st17{fill:#57C3B7;}
	.st18{fill:#FFFFFF;stroke:#19103E;stroke-width:1.4521;stroke-linecap:round;stroke-linejoin:round;stroke-miterlimit:10;}
	.st19{fill:#19103E;stroke:#17113F;stroke-width:1.4521;stroke-miterlimit:10;}
	.st20{fill:none;stroke:#170E3E;stroke-width:1.4529;stroke-linecap:round;stroke-linejoin:round;stroke-miterlimit:10;}
	.st21{fill:none;stroke:#170E3E;stroke-width:1.4529;stroke-linejoin:round;stroke-miterlimit:10;}
	.st22{fill:none;stroke:#170E3E;stroke-width:1.4529;stroke-miterlimit:10;}
	.st23{fill:#FFFFFF;stroke:#170E3E;stroke-width:1.4529;stroke-miterlimit:10;}
	.st24{fill:#FFFFFF;stroke:#170E3E;stroke-width:1.4529;stroke-linecap:round;stroke-linejoin:round;stroke-miterlimit:10;}
	.st25{fill:#170E3E;stroke:#17103F;stroke-width:1.4529;stroke-miterlimit:10;}
</style>
<g>
	<path class="st11" d="M226.1,5.7v1.9h15.4c0.9,0,1.5,0.7,1.5,1.5v0.6c0,0.9-0.7,1.5-1.5,1.5h-15.4v3.9c0,1.1,0.9,1.9,1.9,1.9h13.7
		c0.9,0,1.5,0.7,1.5,1.5v0.6c0,0.9-0.7,1.5-1.5,1.5h-13.7c-3.1,0-5.6-2.5-5.6-5.6V5.7c0-3.1,2.5-5.6,5.6-5.6h13.7
		c0.9,0,1.5,0.7,1.5,1.5v0.6c0,0.9-0.7,1.5-1.5,1.5h-13.7C227,3.8,226.1,4.6,226.1,5.7z"/>
	<path class="st11" d="M47.4,1.6v0.6c0,0.9-0.7,1.5-1.5,1.5H32.2c-1.1,0-1.9,0.9-1.9,1.9v1.9h15.4c0.9,0,1.5,0.7,1.5,1.5v0.6
		c0,0.9-0.7,1.5-1.5,1.5H30.3v8c0,0.9-0.7,1.5-1.5,1.5h-0.6c-0.9,0-1.5-0.7-1.5-1.5V5.6c0-3.1,2.5-5.6,5.6-5.6h13.7
		C46.7,0,47.4,0.7,47.4,1.6z"/>
	<path class="st11" d="M20.9,1.6v17.2c0,1.7-2,2.7-3.3,1.6l-0.4-0.3L3.7,5.5v13.9c0,0.9-0.7,1.5-1.5,1.5H1.5c-0.9,0-1.5-0.7-1.5-1.5
		V2.1c0-1.7,2-2.7,3.3-1.6l0.4,0.3l13.4,14.6V1.6c0-0.9,0.7-1.5,1.5-1.5h0.6C20.2,0,20.9,0.7,20.9,1.6z"/>
	<path class="st11" d="M157.9,11.3C157.9,11.3,157.9,11.3,157.9,11.3c0.6-0.1,1.1-0.2,1.6-0.5c1.9-0.9,3.3-2.9,3.3-5.1
		c0-1.5-0.6-3-1.6-4c-1-1-2.4-1.6-4-1.6h-15.7c-0.9,0-1.5,0.7-1.5,1.5v17.8c0,0.9,0.7,1.5,1.5,1.5h0.6c0.9,0,1.5-0.7,1.5-1.5v-6.5
		c0-0.9,0.7-1.5,1.5-1.5h6.2c1.4,0,2.5,0.7,3.2,1.8l0.1,0.2l2,3.9l1.5,2.9c0.3,0.5,0.8,0.8,1.4,0.8h0.7c1.2,0,1.9-1.2,1.4-2.3
		l-0.8-1.5L157.9,11.3z M143.7,6.1V5.3c0-0.9,0.7-1.5,1.5-1.5h12c0.7,0,1.1,0.3,1.3,0.5c0.2,0.2,0.6,0.7,0.6,1.4
		c0,0.8-0.4,1.4-1.1,1.7c-0.2,0.1-0.5,0.2-0.8,0.2h-12C144.4,7.6,143.7,6.9,143.7,6.1z"/>
	<path class="st11" d="M73.9,1.6v0.6c0,0.9-0.7,1.5-1.5,1.5h-7v15.6c0,0.9-0.7,1.5-1.5,1.5h-0.6c-0.9,0-1.5-0.7-1.5-1.5V3.7h-7
		c-0.9,0-1.5-0.7-1.5-1.5V1.6c0-0.9,0.7-1.5,1.5-1.5h17.8C73.3,0,73.9,0.7,73.9,1.6z"/>
	<path class="st11" d="M119.4,16.3C119.4,16.3,119.4,16.3,119.4,16.3l11.2,0c0.6,0,1.1-0.7,1.1-1.5v-0.6c0-0.9-0.5-1.5-1.1-1.5
		h-12.8c-0.6,0-1.1,0.7-1.1,1.5v0.6c0,0.9,0.5,1.5,1.1,1.5H119.4z"/>
	<path class="st11" d="M107.7,10.6c0-0.1,0-0.1,0-0.2c0,0,0,0,0,0h0V8h-9.9c-0.9,0-1.5,0.7-1.5,1.5v0.7c0,0.9,0.7,1.5,1.5,1.5h6
		c-0.6,3-3.3,5.3-6.6,5.3h-1.5v0h-0.4c-3.6,0-6.7-2.7-6.9-6.3c-0.3-3.9,2.8-7.2,6.7-7.2l10.8,0c0.9,0,1.5-0.7,1.5-1.5V1.6
		c0-0.9-0.7-1.5-1.5-1.5H95.8h-0.3C89.9,0,85,4.4,84.8,10c-0.3,6,4.5,10.9,10.4,10.9h0.6h0.9h0.6c5.5,0,10.1-4.3,10.4-9.8
		c0,0,0-0.1,0-0.1V10.6z"/>
	<path class="st11" d="M218.1,10.6c0-0.1,0-0.1,0-0.2c0,0,0,0,0,0h0V8h-9.9c-0.9,0-1.5,0.7-1.5,1.5v0.7c0,0.9,0.7,1.5,1.5,1.5h6
		c-0.6,3-3.3,5.3-6.6,5.3h-1.5v0h-0.4c-3.6,0-6.7-2.7-6.9-6.3c-0.3-3.9,2.8-7.2,6.7-7.2l10.8,0c0.9,0,1.5-0.7,1.5-1.5V1.6
		c0-0.9-0.7-1.5-1.5-1.5h-10.2h-0.3c-5.6,0-10.5,4.3-10.7,9.9c-0.3,6,4.5,10.9,10.4,10.9h0.6h0.9h0.6c5.5,0,10.1-4.3,10.4-9.8
		c0,0,0-0.1,0-0.1V10.6z"/>
	<g>
		<path class="st11" d="M135.5,18.7L125.2,0.8c-0.6-1.1-2.2-1.1-2.8,0l-10.3,17.8c-0.5,1,0.2,2.3,1.4,2.3h0.7c0.6,0,1.1-0.2,1.7-1.4
			l7.9-13.8l7.9,13.9c0.5,0.8,1,1.3,1.6,1.3l0.7,0C135.3,20.9,136,19.7,135.5,18.7z"/>
	</g>
	<path class="st11" d="M174.6,16.3C174.6,16.3,174.6,16.3,174.6,16.3l11.2,0c0.6,0,1.1-0.7,1.1-1.5v-0.6c0-0.9-0.5-1.5-1.1-1.5
		h-12.8c-0.6,0-1.1,0.7-1.1,1.5v0.6c0,0.9,0.5,1.5,1.1,1.5H174.6z"/>
	<g>
		<path class="st11" d="M190.7,18.7L180.4,0.9c-0.6-1.1-2.2-1.1-2.8,0l-10.3,17.8c-0.5,1,0.2,2.3,1.4,2.3h0.7c0.6,0,1.1-0.2,1.7-1.4
			L179,5.8l7.9,13.9c0.5,0.8,1,1.3,1.6,1.3l0.7,0C190.5,20.9,191.2,19.7,190.7,18.7z"/>
	</g>
</g>
</svg>
