<?xml version="1.0" encoding="utf-8"?>
<!-- Generator: Adobe Illustrator 26.0.2, SVG Export Plug-In . SVG Version: 6.00 Build 0)  -->
<svg version="1.1" id="Layer_1" xmlns="http://www.w3.org/2000/svg" xmlns:xlink="http://www.w3.org/1999/xlink" x="0px" y="0px"
	 viewBox="0 0 399.9 137.4" style="enable-background:new 0 0 399.9 137.4;" xml:space="preserve">
<style type="text/css">
	.st0{fill:#FFFFFF;}
	.st1{fill:none;stroke:#170E3E;stroke-width:1.9764;stroke-linecap:round;stroke-linejoin:round;stroke-miterlimit:10;}
	.st2{fill:#C862FF;}
	.st3{fill:none;stroke:#170E3E;stroke-width:1.9764;stroke-linejoin:round;stroke-miterlimit:10;}
	.st4{fill:none;stroke:#170E3E;stroke-width:1.9764;stroke-miterlimit:10;}
	.st5{fill:#FFFFFF;stroke:#170E3E;stroke-width:1.9764;stroke-miterlimit:10;}
	.st6{fill:#00FFD4;}
	.st7{fill:#170E3E;}
	.st8{fill:#FFFFFF;stroke:#170E3E;stroke-width:1.9764;stroke-linecap:round;stroke-linejoin:round;stroke-miterlimit:10;}
	.st9{fill:#170E3E;stroke:#17103F;stroke-width:1.9764;stroke-miterlimit:10;}
	.st10{opacity:0.51;fill:#FFFFFF;}
	.st11{fill:#19103E;}
	.st12{fill:none;stroke:#19103E;stroke-width:1.4521;stroke-linecap:round;stroke-linejoin:round;stroke-miterlimit:10;}
	.st13{fill:#9E6EAF;}
	.st14{fill:none;stroke:#19103E;stroke-width:1.4521;stroke-linejoin:round;stroke-miterlimit:10;}
	.st15{fill:none;stroke:#19103E;stroke-width:1.4521;stroke-miterlimit:10;}
	.st16{fill:#FFFFFF;stroke:#19103E;stroke-width:1.4521;stroke-miterlimit:10;}
	.st17{fill:#57C3B7;}
	.st18{fill:#FFFFFF;stroke:#19103E;stroke-width:1.4521;stroke-linecap:round;stroke-linejoin:round;stroke-miterlimit:10;}
	.st19{fill:#19103E;stroke:#17113F;stroke-width:1.4521;stroke-miterlimit:10;}
	.st20{fill:none;stroke:#170E3E;stroke-width:1.4529;stroke-linecap:round;stroke-linejoin:round;stroke-miterlimit:10;}
	.st21{fill:none;stroke:#170E3E;stroke-width:1.4529;stroke-linejoin:round;stroke-miterlimit:10;}
	.st22{fill:none;stroke:#170E3E;stroke-width:1.4529;stroke-miterlimit:10;}
	.st23{fill:#FFFFFF;stroke:#170E3E;stroke-width:1.4529;stroke-miterlimit:10;}
	.st24{fill:#FFFFFF;stroke:#170E3E;stroke-width:1.4529;stroke-linecap:round;stroke-linejoin:round;stroke-miterlimit:10;}
	.st25{fill:#170E3E;stroke:#17103F;stroke-width:1.4529;stroke-miterlimit:10;}
</style>
<g>
	<g>
		<path class="st11" d="M382.8,63.5v1.9h15.4c0.9,0,1.5,0.7,1.5,1.5v0.6c0,0.9-0.7,1.5-1.5,1.5h-15.4v3.9c0,1.1,0.9,1.9,1.9,1.9
			h13.7c0.9,0,1.5,0.7,1.5,1.5v0.6c0,0.9-0.7,1.5-1.5,1.5h-13.7c-3.1,0-5.6-2.5-5.6-5.6v-9.6c0-3.1,2.5-5.6,5.6-5.6h13.7
			c0.9,0,1.5,0.7,1.5,1.5v0.6c0,0.9-0.7,1.5-1.5,1.5h-13.7C383.6,61.6,382.8,62.5,382.8,63.5z"/>
		<path class="st11" d="M204,59.4V60c0,0.9-0.7,1.5-1.5,1.5h-13.7c-1.1,0-1.9,0.9-1.9,1.9v1.9h15.4c0.9,0,1.5,0.7,1.5,1.5v0.6
			c0,0.9-0.7,1.5-1.5,1.5h-15.4v8c0,0.9-0.7,1.5-1.5,1.5h-0.6c-0.9,0-1.5-0.7-1.5-1.5V63.5c0-3.1,2.5-5.6,5.6-5.6h13.7
			C203.4,57.9,204,58.6,204,59.4z"/>
		<path class="st11" d="M177.5,59.4v17.2c0,1.7-2,2.7-3.3,1.6l-0.4-0.3l-13.4-14.6v13.9c0,0.9-0.7,1.5-1.5,1.5h-0.6
			c-0.9,0-1.5-0.7-1.5-1.5V60c0-1.7,2-2.7,3.3-1.6l0.4,0.3l13.4,14.6V59.4c0-0.9,0.7-1.5,1.5-1.5h0.6
			C176.8,57.9,177.5,58.6,177.5,59.4z"/>
		<path class="st11" d="M314.6,69.1C314.6,69.1,314.6,69.1,314.6,69.1c0.6-0.1,1.1-0.2,1.6-0.5c1.9-0.9,3.3-2.9,3.3-5.1
			c0-1.5-0.6-3-1.6-4c-1-1-2.4-1.6-4-1.6h-15.7c-0.9,0-1.5,0.7-1.5,1.5v17.8c0,0.9,0.7,1.5,1.5,1.5h0.6c0.9,0,1.5-0.7,1.5-1.5v-6.5
			c0-0.9,0.7-1.5,1.5-1.5h6.2c1.4,0,2.5,0.7,3.2,1.8l0.1,0.2l2,3.9l1.5,2.9c0.3,0.5,0.8,0.8,1.4,0.8h0.7c1.2,0,1.9-1.2,1.4-2.3
			l-0.8-1.5L314.6,69.1z M300.4,63.9v-0.7c0-0.9,0.7-1.5,1.5-1.5h12c0.7,0,1.1,0.3,1.3,0.5c0.2,0.2,0.6,0.7,0.6,1.4
			c0,0.8-0.4,1.4-1.1,1.7c-0.2,0.1-0.5,0.2-0.8,0.2h-12C301,65.5,300.4,64.8,300.4,63.9z"/>
		<path class="st11" d="M230.6,59.4V60c0,0.9-0.7,1.5-1.5,1.5h-7v15.6c0,0.9-0.7,1.5-1.5,1.5h-0.6c-0.9,0-1.5-0.7-1.5-1.5V61.6h-7
			c-0.9,0-1.5-0.7-1.5-1.5v-0.6c0-0.9,0.7-1.5,1.5-1.5H229C229.9,57.9,230.6,58.6,230.6,59.4z"/>
		<path class="st11" d="M276,74.1C276,74.1,276,74.1,276,74.1l11.2,0c0.6,0,1.1-0.7,1.1-1.5v-0.6c0-0.9-0.5-1.5-1.1-1.5h-12.8
			c-0.6,0-1.1,0.7-1.1,1.5v0.6c0,0.9,0.5,1.5,1.1,1.5H276z"/>
		<path class="st11" d="M264.3,68.5c0-0.1,0-0.1,0-0.2c0,0,0,0,0,0h0v-2.4h-9.9c-0.9,0-1.5,0.7-1.5,1.5v0.7c0,0.9,0.7,1.5,1.5,1.5h6
			c-0.6,3-3.3,5.3-6.6,5.3h-1.5v0h-0.4c-3.6,0-6.7-2.7-6.9-6.3c-0.3-3.9,2.8-7.2,6.7-7.2l10.8,0c0.9,0,1.5-0.7,1.5-1.5v-0.6
			c0-0.9-0.7-1.5-1.5-1.5h-10.2h-0.3c-5.6,0-10.5,4.3-10.7,9.9c-0.3,6,4.5,10.9,10.4,10.9h0.6h0.9h0.6c5.5,0,10.1-4.3,10.4-9.8
			c0,0,0-0.1,0-0.1V68.5z"/>
		<path class="st11" d="M374.7,68.5c0-0.1,0-0.1,0-0.2c0,0,0,0,0,0h0v-2.4h-9.9c-0.9,0-1.5,0.7-1.5,1.5v0.7c0,0.9,0.7,1.5,1.5,1.5h6
			c-0.6,3-3.3,5.3-6.6,5.3h-1.5v0h-0.4c-3.6,0-6.7-2.7-6.9-6.3c-0.3-3.9,2.8-7.2,6.7-7.2l10.8,0c0.9,0,1.5-0.7,1.5-1.5v-0.6
			c0-0.9-0.7-1.5-1.5-1.5h-10.2h-0.3c-5.6,0-10.5,4.3-10.7,9.9c-0.3,6,4.5,10.9,10.4,10.9h0.6h0.9h0.6c5.5,0,10.1-4.3,10.4-9.8
			c0,0,0-0.1,0-0.1V68.5z"/>
		<g>
			<path class="st11" d="M292.1,76.5l-10.3-17.8c-0.6-1.1-2.2-1.1-2.8,0l-10.3,17.8c-0.5,1,0.2,2.3,1.4,2.3h0.7
				c0.6,0,1.1-0.2,1.7-1.4l7.9-13.8l7.9,13.9c0.5,0.8,1,1.3,1.6,1.3l0.7,0C291.9,78.8,292.7,77.6,292.1,76.5z"/>
		</g>
		<path class="st11" d="M331.2,74.1C331.2,74.1,331.2,74.1,331.2,74.1l11.2,0c0.6,0,1.1-0.7,1.1-1.5V72c0-0.9-0.5-1.5-1.1-1.5h-12.8
			c-0.6,0-1.1,0.7-1.1,1.5v0.6c0,0.9,0.5,1.5,1.1,1.5H331.2z"/>
		<g>
			<path class="st11" d="M347.3,76.5L337,58.7c-0.6-1.1-2.2-1.1-2.8,0L324,76.5c-0.5,1,0.2,2.3,1.4,2.3h0.7c0.6,0,1.1-0.2,1.7-1.4
				l7.9-13.8l7.9,13.9c0.5,0.8,1,1.3,1.6,1.3l0.7,0C347.1,78.8,347.8,77.6,347.3,76.5z"/>
		</g>
	</g>
	<g>
		<path class="st11" d="M39.1,131c-7.7-5.9-17.1-9.4-24.1-16.3C3.5,103.3-2.9,85.4,1.3,69.4c2.7-10,9.8-17.3,17.8-23.5
			c9.3-7.2,17.7-14.3,24.2-24.1C48.8,13.5,54.2,4.9,64,1.5c19.3-6.6,39.1,9.2,47.2,25.7c0.8,1.6,1.5,3.2,2.1,4.8
			c5.6,14,6.4,29.3,13.1,43c2.8,5.8,6.5,11,7.9,17.4c1.5,6.8,1.5,13.4-1.2,19.9c-4.9,12.1-15.8,17.9-28.3,18.9"/>
		<path class="st0" d="M88.2,81.4c0,0,15,7.8,18.7,31.8l-10,12.9l-12.3-18.8l-1.2-10.6v-11L88.2,81.4z"/>
		<path class="st12" d="M88.7,81.3c0,0,15,7.8,18.7,31.8l-10,12.9L85,107.2l-1.2-10.6v-11L88.7,81.3z"/>
		<g>
			<g>
				<path class="st0" d="M113.1,133.7c-1.6,2-2.8,2.6-4.5,2.8c-1.6,0.2-5-0.1-6.5-0.7c-2.5-1.1-5.6-3.9-12-4.2c0,0-8.7,0.1-18.4,0
					c-9.7,0.1-18.4,0-18.4,0c-6.4,0.3-9.5,3.1-12,4.2c-1.5,0.6-4.9,0.9-6.5,0.7c-1.7-0.2-2.9-0.9-4.5-2.8c-1.6-2-3.9-6.5-3.7-12.8
					c0.4-10.7,10.9-11.5,13.1-3.7c1.3-3.2,3.2-4.5,4.8-5.4c0.7-0.4,1.6-0.7,2.7-0.7c2-9.2,5.3-21.4,10.4-34.8h29.7
					c5.1,13.6,8.4,25.9,10.5,35.1c0.5,0.1,0.9,0.3,1.2,0.5c1.6,0.9,3.5,2.2,4.8,5.4c2.2-7.8,12.7-7,13.1,3.7
					C117,127.2,114.7,131.7,113.1,133.7z"/>
			</g>
		</g>
		<polygon class="st0" points="73.2,83.6 73.2,83.6 73.2,83.6 		"/>
		<path class="st13" d="M40.5,119.4c0,0,7.6,12.1,15.7,0.7c0,0,2.2,7.8,15.4,7.8v3.7l-18.5,0c0,0-7,0.3-12,4.2l-1.4,0.1l-0.7-0.3
			c0,0,1.4-0.2,0.6-3.9C39.7,131.7,42,127.3,40.5,119.4z"/>
		<path class="st13" d="M102.8,119.4c0,0-7.6,12.1-15.7,0.7c0,0-2.2,7.8-15.4,7.8v3.7l18.5,0c0,0,7,0.3,12,4.2l1.4,0.1l0.7-0.3
			c0,0-1.4-0.2-0.6-3.9C103.6,131.7,101.3,127.3,102.8,119.4z"/>
		<path class="st0" d="M45.1,99.9c0,0,2.3,0,5.2-0.4c2.2-2.1,4.6-3.6,7.5-4.5c1.7-0.9,3.5-1.5,5.4-1.9c-0.2-0.2-0.5-0.4-0.7-0.6
			c-2.9-2.9-4.9-6.2-6.2-10.1c-5,0.3-16.5,0.3-19.6-4.6c0,0,0,0,0,0c0.2-1.8-0.2-3.5-0.4-4c0.1-0.6,0.2-1.2,0.3-1.7
			c0.2-1.2,0.3-3.1-1-3.7c-0.5-0.2-1,0-1.4,0.3c-0.8,0.6-1.4,1.5-1.9,2.3c-0.2-0.2-0.3-0.3-0.5-0.4c0,0-0.1-0.1-0.1-0.1
			c-1-0.6-2.1-1-3.1-1.2c-1.2-0.2-2.2-0.2-2.2-0.2c-0.6,0.1-1.2,0.2-1.8,0.4c-1.3,0.5-2.5,1.4-3.3,2.5c-3.4,4.4-0.9,10.9,1.6,15.2
			c2.1,3.8,5.2,7,8.9,9.1C35.8,98.8,40.5,99.8,45.1,99.9z"/>
		<path class="st12" d="M34.1,112.1c0,0,4.3,0.1,5.8,5.2c0,0,0.9,2.6,1,4.9"/>
		<path class="st13" d="M50.9,95.2c-2.5,0.8-5.4,1-8.1,0.8c-2.9-0.2-5.8-0.8-8.4-2c-3.9-1.7-7.4-4.4-10.3-7.4
			c-1.4-1.4-2.7-2.9-3.7-4.5c0,0,5.1,16.3,22.6,17.8l5.3-0.2l2-1.2L50.9,95.2z"/>
		<path class="st12" d="M109.2,112.1c0,0-4.3,0.1-5.8,5.2c0,0-0.9,2.6-1,4.9"/>
		<line class="st12" x1="47" y1="111.1" x2="51.1" y2="94.5"/>
		<path class="st12" d="M49.7,99.3c-7.4,1.6-15.9-0.5-21.7-5.5c-3-2.6-5.3-5.9-6.9-9.5c-2.2-5-2.8-12.7,3.7-14.8
			c2.2-0.7,5.8-0.4,7.4,1.5c0.8-1.5,3.5-4.5,4.4-1.2c0.3,1.3,0,2.8-0.4,4c0,0,0.6,1.9,0.4,4c0,0,2.1,5.1,18.5,4.7l1.1,0"/>
		<path class="st12" d="M109.2,112.1c3.1,0,4.2,1.1,4.2,1.1c5.4,3.9,2.8,13.7,2.8,13.7c-1.2,5.3-4.4,10.1-10.4,9.7
			c-2.6-0.2-4.8-1.3-7-2.6c-2-1.2-4.4-1.8-6.7-2.2c-4.8-0.7-9.6-0.3-14.4-0.3c-6.4,0-12.9,0-19.3-0.1c-3.5,0-7,0.1-10.4,1.1
			c-3.1,0.9-5.7,3-8.8,3.8c-0.7,0.2-1.5,0.3-2.2,0.3c-8.1,0.4-10.8-9.2-10.4-15.8c0.5-10.2,7.9-8.8,7.9-8.8"/>
		<g>
			<path class="st12" d="M30.2,112.9c1.4-1,3.2-0.6,4.6,0.3c2.7,1.8,3.4,5.3,3.5,8.3c0.1,1.8,0,3.5,0.2,5.3c0.2,1.7,1.1,3.3,1.3,5.1
				c0.2,1.7,0.1,3.7-1.7,4.7"/>
			<line class="st14" x1="26.8" y1="118.6" x2="37.9" y2="118.6"/>
			<line class="st14" x1="26.8" y1="123.5" x2="37.9" y2="123.5"/>
			<line class="st14" x1="27.3" y1="128.1" x2="38.4" y2="128.1"/>
			<line class="st14" x1="29.3" y1="132.7" x2="39.7" y2="132.7"/>
		</g>
		<g>
			<path class="st12" d="M112.8,112.8c-1.1-0.5-2.2-0.7-3.2-0.4c-1.1,0.4-2.1,1.1-2.8,2c-1.5,1.9-2,4.6-2.1,7
				c-0.1,1.8,0,3.5-0.2,5.3c-0.2,1.7-1.1,3.3-1.3,5.1c-0.2,1.7-0.1,3.7,1.7,4.7"/>
			<line class="st14" x1="116.2" y1="118.4" x2="105" y2="118.4"/>
			<line class="st14" x1="116.2" y1="123.4" x2="105" y2="123.4"/>
			<line class="st14" x1="115.7" y1="128" x2="104.5" y2="128"/>
			<line class="st14" x1="113.6" y1="132.6" x2="103.2" y2="132.6"/>
		</g>
		<path class="st13" d="M93.7,95.9l4.6,8.4c0,0,4.2,0.7,3.5,9.6l-4.2-2.6l-1.9-7.5L93.7,95.9z"/>
		<line class="st12" x1="97.7" y1="111.3" x2="93.3" y2="94.5"/>
		<path class="st0" d="M97.5,113.8H45.6c-1,0-1.7-0.8-1.7-1.7v-3c0-1,0.8-1.7,1.7-1.7h51.9c1,0,1.7,0.8,1.7,1.7v3
			C99.2,113,98.5,113.8,97.5,113.8z"/>
		<path class="st13" d="M44,109.9c0,0,7.7,1.7,20.5,2.7v1.3H44.8C44.8,114,43.8,112.9,44,109.9z"/>
		<path class="st13" d="M99.5,109.9c0,0-7.7,1.7-20.5,2.7v1.3h19.6C98.7,114,99.7,112.9,99.5,109.9z"/>
		<path class="st15" d="M97.6,114H45.7c-1,0-1.7-0.8-1.7-1.7v-3c0-1,0.8-1.7,1.7-1.7h51.9c1,0,1.7,0.8,1.7,1.7v3
			C99.3,113.2,98.6,114,97.6,114z"/>
		<path class="st0" d="M41.2,114c0,0,4.9-5.1,9.2-1.3l4.4,4.5l-1.3,3.8l-5.1-0.8l-6-3.6L41.2,114z"/>
		<path class="st0" d="M101.9,114c0,0-4.9-5.1-9.2-1.3l-4.4,4.5l1.3,3.8l5.1-0.8l6-3.6L101.9,114z"/>
		<circle class="st16" cx="71.5" cy="110.6" r="7.4"/>
		<g>
			<circle class="st0" cx="73.7" cy="110.6" r="2.5"/>
			<path class="st17" d="M73.7,109.6c-1.4,0-2.5,1.1-2.5,2.5c0,0.1,0,0.2,0,0.3c0.4,0.2,0.7,0.4,1,0.8c0.3,0.1,0.6,0.2,0.9,0.4
				c0.1,0,0.2,0,0.2,0c0.1,0,0.1,0,0.2,0c0.2-0.1,0.5-0.1,0.8-0.1c0.2,0,0.5,0,0.7,0.1c0.1-0.1,0.3-0.2,0.4-0.3
				c0.2-0.4,0.5-0.7,0.8-0.9c0,0,0-0.1,0-0.1C76.2,110.7,75.1,109.6,73.7,109.6z"/>
			<circle class="st15" cx="73.7" cy="110.6" r="2.5"/>
		</g>
		<path class="st12" d="M57,122.7c-2-8.5-7.5-10.6-7.5-10.6c-3.8-1.9-7.8,0.8-9.7,4.1"/>
		<path class="st12" d="M86.4,122.7c2-8.5,7.5-10.6,7.5-10.6c3.8-1.9,7.8,0.8,9.7,4.1"/>
		<polyline class="st16" points="67.9,104.4 67.9,109.7 69.4,111.2 69.4,117.4 		"/>
		<g>
			<path class="st0" d="M40.9,82.6c-0.8,0-1.5-0.3-2-0.9l-0.8-0.9c-0.5-0.6-0.7-1.4-0.5-2.3c0.2-0.8,0.7-1.6,1.3-2.1l20.8-17.7
				c0.7-0.6,1.7-1,2.5-1c0.8,0,1.5,0.3,2,0.9l0.8,0.9c0.5,0.6,0.7,1.4,0.5,2.3c-0.2,0.8-0.7,1.6-1.3,2.1L43.4,81.6
				C42.6,82.2,41.7,82.6,40.9,82.6z"/>
			<path class="st11" d="M62.3,58.4c0.6,0,1.1,0.2,1.4,0.6l0.8,0.9c0.7,0.9,0.4,2.4-0.8,3.4L42.9,81c-0.6,0.5-1.4,0.8-2,0.8
				c-0.6,0-1.1-0.2-1.4-0.6l-0.8-0.9c-0.7-0.9-0.4-2.4,0.8-3.4l20.8-17.7C60.8,58.7,61.6,58.4,62.3,58.4 M62.3,57
				C62.3,57,62.3,57,62.3,57c-1,0-2.1,0.4-3,1.2L38.5,75.9c-1.8,1.5-2.2,3.9-0.9,5.4l0.8,0.9c0.6,0.7,1.5,1.1,2.5,1.1
				c1.1,0,2.1-0.4,3-1.2l20.8-17.7c0.8-0.7,1.4-1.6,1.6-2.5c0.2-1.1,0-2.1-0.7-2.9l-0.8-0.9C64.2,57.4,63.3,57,62.3,57L62.3,57z"/>
		</g>
		<g>
			<path class="st0" d="M100.1,45.4l-13.3,6.8C74.7,46.6,79.6,37,79.6,37l12.3-6.3c0,0-7.5-3.9-15.2-0.2c-0.2,0.1-0.8,0.4-1.5,0.8
				c-0.4,0.2-0.7,0.5-1.1,0.7c-2.2,1.7-5.2,4.8-5.9,9.4c-1.1,7.4-7.9,12.1-9.7,13.6l-7.1,6.1l0,0L28.8,80.4
				c-3.3,2.8-7.5,2.4-8.1,2.4c-3,0.1-6,1.1-8.5,3.3c-5.7,4.9-6.4,13.5-1.5,19.2c4.9,5.7,13.5,6.4,19.2,1.5c2.5-2.1,4-4.9,4.5-7.9
				c0.2-0.6,0.4-4.8,3.7-7.6L60.7,72l0,0l7.1-6.1c1.8-1.6,6.8-6.2,9.8-5.7c2.6,0.4,6.6,1.2,10,0.4c0,0,0.1,0,0.2,0c0,0,0,0,0,0
				c0.4-0.1,0.8-0.2,1.2-0.4c0.5-0.2,1.6-0.8,1.6-0.8C96.6,55.7,100.1,45.4,100.1,45.4z M29.7,99.5l-0.5,2.5l-2.2,1.4l-1.7,2
				l-2.6,0.1l-2.4,0.9L18,105l-2.5-0.5l-1.4-2.2l-2-1.7L12,98.1l-0.9-2.4l1.2-2.3l0.5-2.5l2.2-1.4l1.7-2l2.6-0.1l2.4-0.9l2.3,1.2
				l2.5,0.5l1.4,2.2l2,1.7l0.1,2.6l0.9,2.4L29.7,99.5z"/>
			<g>
				<path class="st17" d="M69,37c0,0,6.5-2.2,10.5-1.2c0,0,5.6-5,12.7-6.1l0.3,0.6l0,0.9l-12.3,6.1l-0.7,3.1c0,0-5.6-2.3-12.1-0.8
					L69,37z"/>
				<path class="st17" d="M80.7,57.4c-2.7,0.1-5,0-7.6,1.3c-1.5,0.8-2.8,1.9-4.1,3c0,0-35.3,29.9-35.3,29.9l1.3,5.1
					c0.9-3.1,3.3-5.6,6.3-6.9l26.4-22.3c2.1-4.8,7.9-7.7,13.1-6.7c0.2,0,0.4,0.1,0.6,0.2c0.2,0,0.7,0.7,0.9,0.7
					c1.4-0.4,2.8-0.4,4.3,0c0.7,0,1.3-0.9,1.9-0.8c8.1-3.1,11.3-13,11.3-13C96,53.6,88.7,57,82,57.4C81.5,57.4,81.1,57.4,80.7,57.4z
					"/>
				<path class="st17" d="M31.7,88c0.8,0.9,1,3.5,1.1,4.6c0.2,1.8,0.3,3.7-0.1,5.5c-2.1,10.6-15,13.1-22.6,6.5
					c0,0,3.6,10.2,18.3,3.8c2-0.9,3.9-3.8,5-5.5c2.6-4.3,2.5-9.2-0.4-13.3C32.6,89.1,32.2,88.5,31.7,88z"/>
				<g>
					<path class="st11" d="M83.9,28.9c4.6,0,8,1.8,8,1.8L79.6,37c0,0-4.9,9.6,7.2,15.2l13.3-6.8c0,0-3.5,10.3-9.5,14
						c0,0-1,0.6-1.6,0.8c-0.4,0.1-0.8,0.3-1.2,0.4c0,0,0,0,0,0c0,0,0,0,0,0c0,0-0.1,0-0.2,0c-1.1,0.3-2.3,0.3-3.4,0.3
						c-2.5,0-4.9-0.4-6.6-0.7c-0.1,0-0.3,0-0.5,0c-3,0-7.6,4.3-9.3,5.8L60.7,72l0,0L38.1,91.3c-3.3,2.8-3.5,7-3.7,7.6
						c-0.6,3-2.1,5.8-4.5,7.9c-2.6,2.2-5.7,3.3-8.8,3.3c-3.9,0-7.7-1.6-10.4-4.8c-4.9-5.7-4.2-14.3,1.5-19.2
						c2.5-2.1,5.5-3.2,8.5-3.3c0.1,0,0.2,0,0.3,0c0.1,0,0.2,0,0.4,0c1.4,0,4.7-0.1,7.4-2.4l22.6-19.3l0,0l7.1-6.1
						c1.7-1.5,8.5-6.1,9.7-13.6c0.7-4.7,3.7-7.7,5.9-9.4c0.3-0.3,0.7-0.5,1.1-0.7c0.8-0.5,1.4-0.8,1.5-0.8
						C79.2,29.3,81.7,28.9,83.9,28.9 M20.3,106.3l2.4-0.9l2.6-0.1l1.7-2l2.2-1.4l0.5-2.5l1.2-2.3L30,94.8L30,92.2l-2-1.7l-1.4-2.2
						l-2.5-0.5l-2.3-1.2l-2.4,0.9l-2.6,0.1l-1.7,2l-2.2,1.4l-0.5,2.5l-1.2,2.3l0.9,2.4l0.1,2.6l2,1.7l1.4,2.2L18,105L20.3,106.3
						 M100.1,45.4L100.1,45.4 M83.9,27.4l0,1.5L83.9,27.4c-2.7,0-5.3,0.6-7.7,1.7c-0.4,0.1-1,0.5-1.7,0.9c-0.4,0.3-0.8,0.5-1.2,0.8
						c-2.5,1.9-5.7,5.2-6.5,10.3c-0.9,6.1-6.2,10.3-8.4,12.1c-0.3,0.2-0.6,0.4-0.8,0.6l-7,6c0,0-0.1,0.1-0.1,0.1L27.8,79.3
						c-2.4,2.1-5.5,2.1-6.5,2.1l-0.2,0l-0.2,0c-0.1,0-0.3,0-0.4,0c-3.4,0.1-6.7,1.4-9.3,3.6C8.2,87.6,6.3,91.2,6,95.2
						c-0.3,4,0.9,7.9,3.6,11c2.9,3.4,7.1,5.3,11.5,5.3c3.6,0,7-1.3,9.8-3.6c2.6-2.2,4.4-5.3,5-8.7c0-0.1,0.1-0.3,0.1-0.5
						c0.2-1.2,0.7-4.2,3.1-6.3l22.6-19.3c0.1,0,0.1-0.1,0.2-0.1l6.9-5.9c0.2-0.2,0.4-0.3,0.6-0.5c1.7-1.5,5.6-4.9,7.7-4.9
						c0.1,0,0.2,0,0.2,0l0.3,0.1c1.7,0.3,4.1,0.7,6.5,0.7c1.4,0,2.6-0.1,3.7-0.4c0.1,0,0.1,0,0.2,0l0,0c0,0,0,0,0,0
						c0.4-0.1,0.9-0.2,1.3-0.4c0.6-0.2,1.6-0.8,1.8-0.9c6.2-3.8,9.8-13.6,10.2-14.7c0.1-0.2,0.1-0.4,0.1-0.6c0-0.8-0.6-1.5-1.4-1.5
						c0,0,0,0,0,0c0,0-0.1,0-0.1,0c-0.2,0-0.4,0.1-0.6,0.2l-12.6,6.4c-3.3-1.7-5.4-3.8-6.3-6.3c-1-2.8-0.2-5.3,0.2-6.3l11.9-6.1
						c0.5-0.2,0.8-0.7,0.8-1.3c0-0.5-0.3-1-0.8-1.3C92.4,29.3,88.8,27.4,83.9,27.4L83.9,27.4z M17.5,89l1.9-0.1c0.1,0,0.3,0,0.4-0.1
						l1.8-0.6l1.7,0.9c0.1,0.1,0.3,0.1,0.4,0.1l1.9,0.4l1,1.7c0.1,0.1,0.2,0.2,0.3,0.3l1.5,1.3l0.1,1.9c0,0.1,0,0.3,0.1,0.4l0.6,1.8
						l-0.9,1.7c-0.1,0.1-0.1,0.3-0.1,0.4l-0.4,1.9l-1.7,1c-0.1,0.1-0.2,0.2-0.3,0.3l-1.3,1.5l-1.9,0.1c-0.1,0-0.3,0-0.4,0.1
						l-1.8,0.6l-1.7-0.9c-0.1-0.1-0.3-0.1-0.4-0.1l-1.9-0.4l-1-1.7c-0.1-0.1-0.2-0.2-0.3-0.3l-1.5-1.3l-0.1-1.9c0-0.1,0-0.3-0.1-0.4
						l-0.6-1.8l0.9-1.7c0.1-0.1,0.1-0.3,0.1-0.4l0.4-1.9l1.7-1c0.1-0.1,0.2-0.2,0.3-0.3L17.5,89L17.5,89z"/>
				</g>
			</g>
			<g>
				<path class="st11" d="M21,82.8c3.9,0,7.7,1.6,10.4,4.8c4.9,5.7,4.2,14.3-1.5,19.2c-2.6,2.2-5.7,3.3-8.8,3.3
					c-3.9,0-7.7-1.6-10.4-4.8c-4.9-5.7-4.2-14.3,1.5-19.2C14.8,83.9,17.9,82.8,21,82.8 M21,81.4c-3.6,0-7,1.3-9.8,3.6
					c-6.3,5.4-7.1,14.9-1.7,21.3c2.9,3.4,7.1,5.3,11.5,5.3c3.6,0,7-1.3,9.8-3.6c3.1-2.6,4.9-6.3,5.2-10.3c0.3-4-0.9-7.9-3.6-11
					C29.6,83.3,25.5,81.4,21,81.4L21,81.4z"/>
			</g>
		</g>
		<path class="st18" d="M32,70.8c1.9,2.3,2.1,5.5-0.1,7.7c-2.1,2.2-6.4,2.7-9.1,1.7"/>
		<path class="st0" d="M46.1,75.5h-1.2c-3.2,0-5.7-2.6-5.7-5.7v-8.1c0-3.2,2.6-5.7,5.7-5.7h1.2c3.2,0,5.7,2.6,5.7,5.7v8.1
			C51.8,73,49.2,75.5,46.1,75.5z"/>
		<path class="st0" d="M91.4,80c-1.4,4.7-5.4,7.7-10,9.2c-3.6,1.1-7.5,1.2-11.2,1.2c-1.6,0-3.2-0.1-4.8-0.4c-4.4-0.7-9-2.4-11.7-6.1
			c-0.9-1.2-1.5-2.5-2-3.9c0,0-1.8-6-0.7-11.5c0,0,3.1-13.6,20.5-14.3c17.4,0.6,20.5,14.3,20.5,14.3C93.3,74,91.4,80,91.4,80z"/>
		<g>
			<path class="st13" d="M91.4,77.7c-1.4,4.7-5.4,7.7-10,9.2c-3.6,1.1-7.5,1.2-11.2,1.2c-1.6,0-3.2-0.1-4.8-0.4
				c-4.4-0.7-9-2.4-11.7-6.1c-0.9-1.2-1.5-2.5-2-3.9c0,0-0.9-2.8-1-6.4c-0.2,4.5,1,8.5,1,8.5c0.4,1.4,1.1,2.7,2,3.9
				c2.8,3.7,7.3,5.4,11.7,6.1c1.6,0.3,3.2,0.4,4.8,0.4c3.8,0,7.6-0.1,11.2-1.2c4.6-1.4,8.6-4.4,10-9.2c0,0,1.2-4,1-8.5
				C92.3,74.8,91.4,77.7,91.4,77.7z"/>
		</g>
		<path class="st15" d="M91.4,80c-1.4,4.7-5.4,7.7-10,9.2c-3.6,1.1-7.5,1.2-11.2,1.2c-1.6,0-3.2-0.1-4.8-0.4
			c-4.4-0.7-9-2.4-11.7-6.1c-0.9-1.2-1.5-2.5-2-3.9c0,0-1.8-6-0.7-11.5c0,0,3.1-13.6,20.5-14.3c17.4,0.6,20.5,14.3,20.5,14.3
			C93.3,74,91.4,80,91.4,80z"/>
		<path class="st13" d="M38.7,65.8c0,0,2,7,7.9,8l0.7,1.5c0,0-8.2,1.8-8.6-5.4V65.8z"/>
		<path class="st0" d="M98.3,74.3h-1.2c-3.2,0-5.7-2.6-5.7-5.7v-8.1c0-3.2,2.6-5.7,5.7-5.7h1.2c3.2,0,5.7,2.6,5.7,5.7v8.1
			C104,71.7,101.4,74.3,98.3,74.3z"/>
		<path class="st15" d="M45.6,75.5h-1.2c-3.2,0-5.7-2.6-5.7-5.7v-8.1c0-3.2,2.6-5.7,5.7-5.7h1.2c3.2,0,5.7,2.6,5.7,5.7v8.1
			C51.3,73,48.7,75.5,45.6,75.5z"/>
		<path class="st13" d="M104.4,64.5c0,0-2,7-7.9,8L95.8,74c0,0,8.2,1.8,8.6-5.4V64.5z"/>
		<path class="st15" d="M98.3,74.3h-1.2c-3.2,0-5.7-2.6-5.7-5.7v-8.1c0-3.2,2.6-5.7,5.7-5.7h1.2c3.2,0,5.7,2.6,5.7,5.7v8.1
			C104,71.7,101.4,74.3,98.3,74.3z"/>
		<path class="st16" d="M97,72.3C95.1,78.3,90,82.2,84.2,84c-4.6,1.4-9.6,1.6-14.4,1.6c-2.1,0-4.1-0.2-6.2-0.5
			c-5.6-0.9-11.5-3.1-15-7.8c-1.1-1.5-2-3.2-2.5-5c0,0-2.3-7.6-0.8-14.6c0,0,4-17.4,26.3-18.2c22.2,0.8,26.3,18.2,26.3,18.2
			C99.3,64.7,97,72.3,97,72.3z"/>
		<ellipse class="st19" cx="71.5" cy="65.8" rx="22.9" ry="16"/>
		<path class="st10" d="M89.4,57.5c-1.9-1.8-3.6-3-4.9-3.7c-0.6-0.3-1.2-0.6-1.9-0.9c0,0,0,0,0,0c-0.1,0-0.2-0.1-0.3-0.1
			c-3.3-1.4-7.1-2.2-11.2-2.2c-0.5,0-1,0-1.4,0c-1.4,0.1-2.8,0.2-3.9,0.4c0,0-0.1,0-0.1,0c-4.7,0.8-8.7,2.7-11.6,5.3
			c-1.2,1.1-2.1,2.2-2.6,2.9c-0.2,0.3-0.4,0.6-0.6,1c0,0,0,0,0,0c-0.1,0.2-0.2,0.3-0.3,0.5c0,0.1-0.1,0.1-0.1,0.2
			c0,0.1-0.1,0.2-0.1,0.3c-0.7,1.5-1,3-1,4.7c0,2,0.5,3.8,1.5,5.5c0,0,0,0,0,0c-2.4-7.9,3.7-13.3,3.7-13.3c0.7,1.9,4.5,2.2,8.4,0.8
			c3.2-1.2,5.5-3.1,5.9-4.9C79.9,52.2,89.1,57.3,89.4,57.5z"/>
		<g>
			<circle class="st0" cx="51.8" cy="28" r="1.1"/>
			<circle class="st0" cx="127.6" cy="107.1" r="1.1"/>
			<circle class="st0" cx="114.7" cy="95.9" r="1.1"/>
			<circle class="st0" cx="119.6" cy="78.9" r="1.1"/>
			<circle class="st0" cx="21" cy="62.5" r="1.1"/>
			<circle class="st0" cx="88.2" cy="21.4" r="1.1"/>
			<circle class="st0" cx="25.7" cy="49.4" r="1.1"/>
			<circle class="st0" cx="40.3" cy="106" r="1.1"/>
			<circle class="st0" cx="114.7" cy="72.3" r="0.5"/>
			<circle class="st0" cx="78.9" cy="16.4" r="0.5"/>
			<circle class="st0" cx="85.4" cy="13.6" r="0.5"/>
			<circle class="st0" cx="13.8" cy="61.4" r="0.5"/>
			<circle class="st0" cx="38.4" cy="101.2" r="0.5"/>
			<circle class="st0" cx="8.7" cy="80.3" r="0.5"/>
			<circle class="st0" cx="48" cy="40.5" r="0.5"/>
			<circle class="st0" cx="100.1" cy="38.2" r="0.5"/>
			<circle class="st0" cx="105" cy="89.1" r="0.5"/>
			<circle class="st0" cx="111.1" cy="86.6" r="0.5"/>
		</g>
	</g>
</g>
</svg>
