<?xml version="1.0" encoding="utf-8"?>
<!-- Generator: Adobe Illustrator 26.0.2, SVG Export Plug-In . SVG Version: 6.00 Build 0)  -->
<svg version="1.1" id="Layer_1" xmlns="http://www.w3.org/2000/svg" xmlns:xlink="http://www.w3.org/1999/xlink" x="0px" y="0px"
	 viewBox="0 0 281.8 230.2" style="enable-background:new 0 0 281.8 230.2;" xml:space="preserve">
<style type="text/css">
	.st0{fill:#FFFFFF;}
	.st1{fill:none;stroke:#170E3E;stroke-width:1.9764;stroke-linecap:round;stroke-linejoin:round;stroke-miterlimit:10;}
	.st2{fill:#C862FF;}
	.st3{fill:none;stroke:#170E3E;stroke-width:1.9764;stroke-linejoin:round;stroke-miterlimit:10;}
	.st4{fill:none;stroke:#170E3E;stroke-width:1.9764;stroke-miterlimit:10;}
	.st5{fill:#FFFFFF;stroke:#170E3E;stroke-width:1.9764;stroke-miterlimit:10;}
	.st6{fill:#00FFD4;}
	.st7{fill:#170E3E;}
	.st8{fill:#FFFFFF;stroke:#170E3E;stroke-width:1.9764;stroke-linecap:round;stroke-linejoin:round;stroke-miterlimit:10;}
	.st9{fill:#170E3E;stroke:#17103F;stroke-width:1.9764;stroke-miterlimit:10;}
	.st10{opacity:0.51;fill:#FFFFFF;}
	.st11{fill:#19103E;}
	.st12{fill:none;stroke:#19103E;stroke-width:1.4521;stroke-linecap:round;stroke-linejoin:round;stroke-miterlimit:10;}
	.st13{fill:#9E6EAF;}
	.st14{fill:none;stroke:#19103E;stroke-width:1.4521;stroke-linejoin:round;stroke-miterlimit:10;}
	.st15{fill:none;stroke:#19103E;stroke-width:1.4521;stroke-miterlimit:10;}
	.st16{fill:#FFFFFF;stroke:#19103E;stroke-width:1.4521;stroke-miterlimit:10;}
	.st17{fill:#57C3B7;}
	.st18{fill:#FFFFFF;stroke:#19103E;stroke-width:1.4521;stroke-linecap:round;stroke-linejoin:round;stroke-miterlimit:10;}
	.st19{fill:#19103E;stroke:#17113F;stroke-width:1.4521;stroke-miterlimit:10;}
	.st20{fill:none;stroke:#170E3E;stroke-width:1.4529;stroke-linecap:round;stroke-linejoin:round;stroke-miterlimit:10;}
	.st21{fill:none;stroke:#170E3E;stroke-width:1.4529;stroke-linejoin:round;stroke-miterlimit:10;}
	.st22{fill:none;stroke:#170E3E;stroke-width:1.4529;stroke-miterlimit:10;}
	.st23{fill:#FFFFFF;stroke:#170E3E;stroke-width:1.4529;stroke-miterlimit:10;}
	.st24{fill:#FFFFFF;stroke:#170E3E;stroke-width:1.4529;stroke-linecap:round;stroke-linejoin:round;stroke-miterlimit:10;}
	.st25{fill:#170E3E;stroke:#17103F;stroke-width:1.4529;stroke-miterlimit:10;}
</style>
<g>
	<g>
		<path class="st7" d="M261.9,212.5v2.3h17.8c1,0,1.8,0.8,1.8,1.8v0.7c0,1-0.8,1.8-1.8,1.8h-17.8v4.6c0,1.2,1,2.2,2.2,2.2H280
			c1,0,1.8,0.8,1.8,1.8v0.7c0,1-0.8,1.8-1.8,1.8h-15.8c-3.6,0-6.5-2.9-6.5-6.5v-11.1c0-3.6,2.9-6.5,6.5-6.5H280c1,0,1.8,0.8,1.8,1.8
			v0.7c0,1-0.8,1.8-1.8,1.8h-15.8C262.9,210.3,261.9,211.3,261.9,212.5z"/>
		<path class="st7" d="M54.9,207.8v0.7c0,1-0.8,1.8-1.8,1.8H37.3c-1.2,0-2.2,1-2.2,2.2v2.3h17.8c1,0,1.8,0.8,1.8,1.8v0.7
			c0,1-0.8,1.8-1.8,1.8H35v9.3c0,1-0.8,1.8-1.8,1.8h-0.7c-1,0-1.8-0.8-1.8-1.8v-15.8c0-3.6,2.9-6.5,6.5-6.5h15.8
			C54.1,206,54.9,206.8,54.9,207.8z"/>
		<path class="st7" d="M24.2,207.8v19.9c0,2-2.3,3.1-3.9,1.9l-0.5-0.4l-15.5-17v16.1c0,1-0.8,1.8-1.8,1.8H1.8c-1,0-1.8-0.8-1.8-1.8
			v-20c0-2,2.3-3.1,3.9-1.9l0.5,0.4l15.5,17v-16c0-1,0.8-1.8,1.8-1.8h0.7C23.4,206,24.2,206.8,24.2,207.8z"/>
		<path class="st7" d="M182.9,219C182.9,219,182.9,219,182.9,219c0.7-0.1,1.3-0.3,1.9-0.5c2.3-1,3.8-3.3,3.8-5.9
			c0-1.8-0.7-3.4-1.9-4.6c-1.2-1.2-2.8-1.9-4.6-1.9h-18.2c-1,0-1.8,0.8-1.8,1.8v20.6c0,1,0.8,1.8,1.8,1.8h0.7c1,0,1.8-0.8,1.8-1.8
			v-7.5c0-1,0.8-1.8,1.8-1.8h7.2c1.6,0,2.9,0.8,3.7,2.1l0.1,0.2l2.3,4.5l1.7,3.3c0.3,0.6,0.9,1,1.6,1h0.8c1.3,0,2.2-1.4,1.6-2.6
			l-0.9-1.7L182.9,219z M166.5,213v-0.9c0-1,0.8-1.8,1.8-1.8h13.9c0.8,0,1.3,0.4,1.6,0.6c0.2,0.3,0.7,0.8,0.7,1.6
			c0,0.9-0.5,1.7-1.3,2c-0.3,0.1-0.6,0.2-0.9,0.2h-13.9C167.3,214.8,166.5,213.9,166.5,213z"/>
		<path class="st7" d="M85.6,207.8v0.7c0,1-0.8,1.8-1.8,1.8h-8.1v18.1c0,1-0.8,1.8-1.8,1.8h-0.7c-1,0-1.8-0.8-1.8-1.8v-18.1h-8.1
			c-1,0-1.8-0.8-1.8-1.8v-0.7c0-1,0.8-1.8,1.8-1.8h20.6C84.8,206,85.6,206.8,85.6,207.8z"/>
		<path class="st7" d="M138.3,224.8C138.3,224.8,138.3,224.8,138.3,224.8l12.9,0c0.7,0,1.3-0.8,1.3-1.8v-0.7c0-1-0.6-1.8-1.3-1.8
			h-14.8c-0.7,0-1.3,0.8-1.3,1.8v0.7c0,1,0.6,1.8,1.3,1.8H138.3z"/>
		<path class="st7" d="M124.7,218.2c0-0.1,0-0.1,0-0.2c0,0,0,0,0,0h0v-2.8h-11.4c-1,0-1.8,0.8-1.8,1.8v0.8c0,1,0.8,1.8,1.8,1.8h7
			c-0.7,3.5-3.9,6.2-7.6,6.2h-1.7v0h-0.4c-4.1,0-7.8-3.1-8-7.3c-0.3-4.5,3.3-8.3,7.8-8.3l12.5,0c1,0,1.8-0.8,1.8-1.8v-0.7
			c0-1-0.8-1.8-1.8-1.8h-11.8h-0.3c-6.5,0-12.1,5-12.4,11.5c-0.3,6.9,5.2,12.7,12.1,12.7h0.7h1h0.7c6.4,0,11.7-5,12-11.3
			c0,0,0-0.1,0-0.1V218.2z"/>
		<path class="st7" d="M252.6,218.2c0-0.1,0-0.1,0-0.2c0,0,0,0,0,0h0v-2.8h-11.4c-1,0-1.8,0.8-1.8,1.8v0.8c0,1,0.8,1.8,1.8,1.8h7
			c-0.7,3.5-3.9,6.2-7.6,6.2h-1.7v0h-0.4c-4.1,0-7.8-3.1-8-7.3c-0.3-4.5,3.3-8.3,7.8-8.3l12.5,0c1,0,1.8-0.8,1.8-1.8v-0.7
			c0-1-0.8-1.8-1.8-1.8h-11.8h-0.3c-6.5,0-12.1,5-12.4,11.5c-0.3,6.9,5.2,12.7,12.1,12.7h0.7h1h0.7c6.4,0,11.7-5,12-11.3
			c0,0,0-0.1,0-0.1V218.2z"/>
		<g>
			<path class="st7" d="M156.9,227.6L145,206.9c-0.7-1.3-2.5-1.3-3.2,0l-11.9,20.6c-0.6,1.2,0.3,2.6,1.6,2.6h0.9
				c0.7,0,1.2-0.2,2-1.6l9.1-16l9.2,16.1c0.6,0.9,1.2,1.5,1.9,1.5l0.9,0C156.7,230.2,157.5,228.8,156.9,227.6z"/>
		</g>
		<path class="st7" d="M202.2,224.8C202.2,224.8,202.2,224.8,202.2,224.8l12.9,0c0.7,0,1.3-0.8,1.3-1.8v-0.7c0-1-0.6-1.8-1.3-1.8
			h-14.8c-0.7,0-1.3,0.8-1.3,1.8v0.7c0,1,0.6,1.8,1.3,1.8H202.2z"/>
		<g>
			<path class="st7" d="M220.9,227.6L208.9,207c-0.7-1.3-2.5-1.3-3.2,0l-11.9,20.6c-0.6,1.2,0.3,2.6,1.6,2.6h0.9
				c0.7,0,1.2-0.2,2-1.6l9.1-16l9.2,16.1c0.6,0.9,1.2,1.5,1.9,1.5l0.9,0C220.6,230.2,221.5,228.8,220.9,227.6z"/>
		</g>
	</g>
	<g>
		<path class="st7" d="M102.1,178.4c-10.5-8-23.2-12.8-32.8-22.2c-15.8-15.5-24.5-39.9-18.7-61.7c3.6-13.6,13.4-23.6,24.3-32
			c12.6-9.7,24.1-19.5,33-32.9c7.4-11.2,14.7-22.9,28.1-27.5c26.2-9,53.3,12.5,64.3,35c1,2.1,2,4.3,2.9,6.5
			c7.6,19.1,8.7,39.9,17.8,58.5c3.8,7.8,8.9,15,10.7,23.7c2,9.2,2,18.3-1.6,27.1c-6.7,16.4-21.5,24.3-38.6,25.8"/>
		<path class="st0" d="M168.8,110.8c0,0,20.4,10.5,25.4,43.3l-13.6,17.5l-16.8-25.5l-1.6-14.4v-15L168.8,110.8z"/>
		<path class="st1" d="M169.5,110.6c0,0,20.4,10.5,25.4,43.3l-13.6,17.5l-16.8-25.5l-1.6-14.4v-15L169.5,110.6z"/>
		<g>
			<g>
				<path class="st0" d="M202.7,181.9c-2.2,2.7-3.8,3.6-6.2,3.9c-2.2,0.3-6.8-0.1-8.8-1c-3.4-1.5-7.6-5.3-16.3-5.7
					c0,0-11.9,0.1-25.1,0.1c-13.2,0.1-25.1-0.1-25.1-0.1c-8.7,0.4-12.9,4.3-16.3,5.7c-2.1,0.9-6.7,1.2-8.8,1c-2.3-0.3-4-1.2-6.2-3.9
					c-2.2-2.7-5.3-8.8-5-17.4c0.5-14.5,14.8-15.7,17.8-5c1.8-4.3,4.3-6.1,6.5-7.3c0.9-0.5,2.2-0.9,3.7-1
					c2.8-12.5,7.3-29.1,14.2-47.4h40.5c7,18.5,11.5,35.2,14.3,47.8c0.6,0.2,1.2,0.4,1.7,0.7c2.2,1.2,4.7,3,6.5,7.3
					c2.9-10.7,17.3-9.5,17.8,5C208,173.1,205,179.2,202.7,181.9z"/>
			</g>
		</g>
		<polygon class="st0" points="148.4,113.8 148.4,113.8 148.4,113.7 		"/>
		<path class="st2" d="M103.9,162.5c0,0,10.4,16.5,21.4,1c0,0,3,10.6,21,10.7v5l-25.2-0.1c0,0-9.5,0.4-16.3,5.7l-1.9,0.1l-0.9-0.4
			c0,0,2-0.3,0.8-5.3C102.9,179.2,106,173.2,103.9,162.5z"/>
		<path class="st2" d="M188.8,162.5c0,0-10.4,16.5-21.4,1c0,0-3,10.6-21,10.7v5l25.2-0.1c0,0,9.5,0.4,16.3,5.7l1.9,0.1l0.9-0.4
			c0,0-2-0.3-0.8-5.3C189.8,179.2,186.7,173.2,188.8,162.5z"/>
		<path class="st0" d="M110.2,135.9c0,0,3.1,0,7-0.5c2.9-2.8,6.3-4.9,10.2-6.1c2.4-1.2,4.8-2.1,7.4-2.6c-0.3-0.2-0.6-0.5-1-0.7
			c-3.9-3.9-6.7-8.5-8.5-13.7c-6.8,0.4-22.4,0.4-26.7-6.3c0,0,0,0,0,0c0.3-2.5-0.3-4.8-0.5-5.4c0.2-0.8,0.3-1.6,0.4-2.4
			c0.2-1.6,0.4-4.2-1.4-5c-0.7-0.3-1.3,0-1.9,0.4c-1.1,0.8-1.9,2-2.6,3.1c-0.2-0.2-0.5-0.4-0.7-0.6c-0.1,0-0.1-0.1-0.2-0.1
			c-1.3-0.9-2.9-1.3-4.2-1.6c-1.7-0.3-3-0.2-3-0.2c-0.8,0.1-1.6,0.3-2.4,0.6c-1.8,0.7-3.4,1.9-4.5,3.4c-4.7,6.1-1.2,14.8,2.2,20.7
			c2.9,5.1,7.1,9.5,12.2,12.4C97.5,134.5,103.9,135.9,110.2,135.9z"/>
		<path class="st1" d="M95.3,152.5c0,0,5.8,0.1,7.9,7.1c0,0,1.2,3.6,1.4,6.7"/>
		<path class="st2" d="M118.1,129.5c-3.5,1.1-7.4,1.3-11,1.1c-3.9-0.2-7.8-1.1-11.4-2.7c-5.3-2.4-10-6-14-10.1
			c-1.8-1.9-3.6-3.9-5.1-6.1c0,0,6.9,22.2,30.8,24.2l7.2-0.2l2.7-1.7L118.1,129.5z"/>
		<path class="st1" d="M197.4,152.5c0,0-5.8,0.1-7.9,7.1c0,0-1.2,3.6-1.4,6.7"/>
		<line class="st1" x1="112.9" y1="151.2" x2="118.3" y2="128.6"/>
		<path class="st1" d="M116.5,135.2c-10.1,2.1-21.7-0.6-29.5-7.5c-4-3.6-7.2-8.1-9.4-13c-3-6.8-3.8-17.3,5-20.1
			c3-1,7.9-0.5,10.1,2.1c1.2-2,4.7-6.1,5.9-1.7c0.5,1.7,0,3.8-0.5,5.5c0,0,0.9,2.6,0.5,5.4c0,0,2.9,7,25.2,6.4l1.5-0.1"/>
		<path class="st1" d="M197.4,152.5c4.3,0,5.7,1.6,5.7,1.6c7.3,5.3,3.8,18.7,3.8,18.7c-1.6,7.2-6,13.7-14.2,13.2
			c-3.5-0.2-6.5-1.7-9.5-3.5c-2.7-1.6-6-2.5-9.1-3c-6.5-1-13.1-0.4-19.6-0.4c-8.8,0-17.5,0-26.3-0.1c-4.8,0-9.6,0.2-14.2,1.5
			c-4.2,1.2-7.7,4.1-12,5.1c-1,0.2-2,0.4-3,0.4c-11,0.5-14.7-12.5-14.2-21.5c0.7-13.8,10.8-12,10.8-12"/>
		<g>
			<path class="st1" d="M89.9,153.7c1.9-1.3,4.3-0.8,6.2,0.5c3.7,2.4,4.6,7.2,4.8,11.3c0.1,2.4,0,4.8,0.3,7.2
				c0.3,2.4,1.5,4.5,1.8,6.9c0.3,2.3,0.1,5.1-2.3,6.3"/>
			<line class="st3" x1="85.2" y1="161.4" x2="100.5" y2="161.4"/>
			<line class="st3" x1="85.2" y1="168.1" x2="100.5" y2="168.1"/>
			<line class="st3" x1="85.9" y1="174.3" x2="101.2" y2="174.3"/>
			<line class="st3" x1="88.7" y1="180.6" x2="102.9" y2="180.6"/>
		</g>
		<g>
			<path class="st1" d="M202.3,153.6c-1.5-0.7-3-1-4.3-0.5c-1.5,0.5-2.9,1.5-3.8,2.8c-2.1,2.6-2.7,6.2-2.8,9.5
				c-0.1,2.4,0,4.8-0.3,7.2c-0.3,2.4-1.5,4.5-1.8,6.9c-0.3,2.3-0.1,5.1,2.3,6.3"/>
			<line class="st3" x1="207" y1="161.2" x2="191.8" y2="161.2"/>
			<line class="st3" x1="207" y1="168" x2="191.8" y2="168"/>
			<line class="st3" x1="206.3" y1="174.2" x2="191.1" y2="174.2"/>
			<line class="st3" x1="203.5" y1="180.4" x2="189.3" y2="180.4"/>
		</g>
		<path class="st2" d="M176.4,130.6l6.3,11.4c0,0,5.8,0.9,4.8,13.1l-5.7-3.5l-2.6-10.2L176.4,130.6z"/>
		<line class="st1" x1="181.8" y1="151.6" x2="175.9" y2="128.6"/>
		<path class="st0" d="M181.5,154.9h-70.6c-1.3,0-2.4-1.1-2.4-2.4v-4.1c0-1.3,1.1-2.4,2.4-2.4h70.6c1.3,0,2.4,1.1,2.4,2.4v4.1
			C183.9,153.8,182.8,154.9,181.5,154.9z"/>
		<path class="st2" d="M108.7,149.6c0,0,10.4,2.4,27.9,3.7v1.7h-26.7C109.8,155.1,108.5,153.7,108.7,149.6z"/>
		<path class="st2" d="M184.3,149.6c0,0-10.4,2.4-27.9,3.7v1.7h26.7C183.2,155.1,184.5,153.7,184.3,149.6z"/>
		<path class="st4" d="M181.7,155.1H111c-1.3,0-2.4-1.1-2.4-2.4v-4.1c0-1.3,1.1-2.4,2.4-2.4h70.6c1.3,0,2.4,1.1,2.4,2.4v4.1
			C184,154,183,155.1,181.7,155.1z"/>
		<path class="st0" d="M104.9,155.1c0,0,6.7-6.9,12.5-1.8l6,6.1l-1.8,5.2l-6.9-1l-8.2-4.9L104.9,155.1z"/>
		<path class="st0" d="M187.5,155.1c0,0-6.7-6.9-12.5-1.8l-6,6.1l1.8,5.2l6.9-1l8.2-4.9L187.5,155.1z"/>
		<circle class="st5" cx="146.2" cy="150.5" r="10.1"/>
		<g>
			<circle class="st0" cx="149.2" cy="150.5" r="3.4"/>
			<path class="st6" d="M149.2,149.1c-1.9,0-3.4,1.5-3.4,3.4c0,0.1,0,0.2,0,0.3c0.5,0.2,1,0.6,1.3,1c0.4,0.1,0.8,0.3,1.2,0.6
				c0.1,0,0.2,0,0.3,0c0.1,0,0.2,0,0.3,0c0.3-0.1,0.7-0.2,1-0.2c0.3,0,0.6,0,0.9,0.1c0.2-0.2,0.4-0.3,0.6-0.4
				c0.3-0.5,0.6-0.9,1.1-1.3c0-0.1,0-0.1,0-0.2C152.6,150.7,151,149.1,149.2,149.1z"/>
			<circle class="st4" cx="149.2" cy="150.5" r="3.4"/>
		</g>
		<path class="st1" d="M126.4,167.1c-2.7-11.6-10.3-14.4-10.3-14.4c-5.2-2.6-10.6,1.2-13.2,5.6"/>
		<path class="st1" d="M166.5,167.1c2.7-11.6,10.3-14.4,10.3-14.4c5.2-2.6,10.6,1.2,13.2,5.6"/>
		<polyline class="st5" points="141.2,142 141.2,149.3 143.3,151.4 143.3,159.8 		"/>
		<g>
			<path class="st0" d="M104.5,112.4c-1.1,0-2.1-0.4-2.7-1.2l-1-1.2c-1.4-1.6-0.9-4.3,1.1-6l28.3-24.1c1-0.9,2.3-1.3,3.4-1.3
				c1.1,0,2.1,0.4,2.7,1.2l1,1.2c1.4,1.6,0.9,4.3-1.1,6L107.9,111C106.9,111.9,105.6,112.4,104.5,112.4z"/>
			<path class="st7" d="M133.6,79.5c0.8,0,1.5,0.3,1.9,0.8l1,1.2c1,1.2,0.6,3.3-1,4.6l-28.3,24.1c-0.9,0.7-1.9,1.1-2.8,1.1
				c-0.8,0-1.5-0.3-1.9-0.8l-1-1.2c-1-1.2-0.6-3.3,1-4.6l28.3-24.1C131.6,79.9,132.7,79.5,133.6,79.5 M133.6,77.6
				C133.6,77.6,133.6,77.6,133.6,77.6c-1.4,0-2.9,0.6-4.1,1.6l-28.3,24.1c-2.5,2.1-3,5.4-1.3,7.4l1,1.2c0.8,1,2.1,1.5,3.4,1.5
				c1.4,0,2.9-0.6,4.1-1.6l28.3-24.1c2.5-2.1,3-5.3,1.3-7.4l-1-1.2C136.2,78.1,135,77.6,133.6,77.6L133.6,77.6z"/>
		</g>
		<g>
			<path class="st0" d="M185,61.9L167,71c-16.5-7.6-9.8-20.7-9.8-20.7l16.8-8.6c0,0-10.2-5.3-20.7-0.2c-0.2,0.1-1,0.5-2.1,1.2
				c-0.5,0.3-1,0.7-1.5,1c-3.1,2.3-7.1,6.5-8.1,12.8c-1.5,10.1-10.8,16.4-13.2,18.5l-9.7,8.2l0,0L88,109.4c-4.5,3.8-10.2,3.2-11,3.3
				c-4.1,0.1-8.2,1.6-11.5,4.4c-7.8,6.6-8.7,18.3-2.1,26.1c6.6,7.8,18.3,8.7,26.1,2.1c3.4-2.9,5.4-6.7,6.2-10.7
				c0.2-0.8,0.5-6.5,5-10.4L131.5,98l0,0l9.7-8.3c2.5-2.1,9.2-8.5,13.3-7.8c3.5,0.6,9,1.6,13.7,0.5c0.1,0,0.1,0,0.2,0c0,0,0,0,0,0
				c0.6-0.1,1.1-0.3,1.6-0.5c0.7-0.3,2.1-1.1,2.1-1.1C180.3,75.8,185,61.9,185,61.9z M89.2,135.4l-0.7,3.5l-3,1.8l-2.3,2.7l-3.5,0.1
				l-3.3,1.2l-3.1-1.7l-3.5-0.7l-1.8-3l-2.7-2.3l-0.1-3.5l-1.2-3.3l1.7-3.1l0.7-3.5l3-1.8l2.3-2.7l3.5-0.1l3.3-1.2l3.1,1.7l3.5,0.7
				l1.8,3l2.7,2.3l0.1,3.5l1.2,3.3L89.2,135.4z"/>
			<g>
				<path class="st6" d="M142.8,50.4c0,0,8.8-3,14.3-1.6c0,0,7.7-6.9,17.3-8.3l0.4,0.9l0,1.2L158,50.9l-1,4.3c0,0-7.6-3.2-16.4-1
					L142.8,50.4z"/>
				<path class="st6" d="M158.7,78.2c-3.6,0.1-6.8-0.1-10.4,1.8c-2.1,1.1-3.8,2.5-5.6,4.1c0,0-48,40.7-48,40.7l1.7,7
					c1.2-4.3,4.5-7.6,8.5-9.5l35.9-30.3c2.9-6.6,10.8-10.5,17.8-9.1c0.3,0.1,0.6,0.1,0.8,0.2c0.3-0.1,0.9,1,1.3,1
					c1.9-0.6,3.8-0.5,5.8,0c0.9,0,1.7-1.2,2.6-1.1c11-4.3,15.4-17.7,15.4-17.7c-5.1,7.8-15.1,12.4-24.2,12.9
					C159.8,78.2,159.2,78.2,158.7,78.2z"/>
				<path class="st6" d="M92,119.8c1.1,1.2,1.3,4.7,1.5,6.3c0.3,2.5,0.4,5-0.1,7.5c-2.8,14.4-20.4,17.9-30.7,8.9c0,0,5,13.9,25,5.2
					c2.7-1.2,5.3-5.2,6.8-7.5c3.5-5.8,3.4-12.5-0.5-18.1C93.3,121.3,92.6,120.5,92,119.8z"/>
				<g>
					<path class="st7" d="M163,39.3c6.3,0,10.9,2.4,10.9,2.4l-16.8,8.6c0,0-6.6,13.1,9.8,20.7l18-9.2c0,0-4.8,14-13,19
						c0,0-1.4,0.8-2.1,1.1c-0.5,0.2-1.1,0.4-1.6,0.5c0,0,0,0,0,0c0,0,0,0,0,0c-0.1,0-0.1,0-0.2,0c-1.5,0.3-3.1,0.5-4.7,0.5
						c-3.3,0-6.6-0.6-9-1c-0.2,0-0.4,0-0.6,0c-4.1,0-10.3,5.8-12.7,7.9l-9.7,8.3l0,0l-30.8,26.3c-4.5,3.8-4.8,9.6-5,10.4
						c-0.8,4-2.8,7.8-6.2,10.7c-3.5,3-7.8,4.4-12,4.4c-5.2,0-10.5-2.2-14.1-6.5c-6.6-7.8-5.7-19.5,2.1-26.1
						c3.4-2.9,7.4-4.3,11.5-4.4c0.1,0,0.2,0,0.4,0c0.1,0,0.3,0,0.5,0c2,0,6.5-0.1,10.1-3.3l30.8-26.2l0,0l9.7-8.2
						c2.4-2,11.6-8.4,13.2-18.5c1-6.3,5-10.5,8.1-12.8c0.5-0.4,0.9-0.7,1.5-1c1.1-0.7,1.8-1.1,2.1-1.2C156.7,39.8,160,39.3,163,39.3
						 M76.4,144.6l3.3-1.2l3.5-0.1l2.3-2.7l3-1.8l0.7-3.5l1.7-3.1l-1.2-3.3l-0.1-3.5l-2.7-2.3l-1.8-3l-3.5-0.7l-3.1-1.7l-3.3,1.2
						l-3.5,0.1l-2.3,2.7l-3,1.8l-0.7,3.5l-1.7,3.1l1.2,3.3l0.1,3.5l2.7,2.3l1.8,3l3.5,0.7L76.4,144.6 M185,61.9L185,61.9 M163,37.3
						L163,37.3c-3.7,0-7.3,0.8-10.5,2.4c-0.5,0.2-1.4,0.7-2.4,1.3c-0.6,0.3-1.1,0.7-1.6,1.1c-3.4,2.6-7.7,7.1-8.8,14.1
						c-1.3,8.3-8.4,14-11.5,16.4c-0.4,0.3-0.8,0.6-1,0.8l-9.5,8.1c-0.1,0-0.1,0.1-0.2,0.1l-30.8,26.2c-3.3,2.8-7.5,2.8-8.9,2.8
						l-0.3,0l-0.2,0c-0.2,0-0.4,0-0.5,0c-4.7,0.1-9.2,1.9-12.7,4.9c-8.6,7.3-9.6,20.3-2.3,28.9c3.9,4.6,9.6,7.2,15.6,7.2
						c4.9,0,9.6-1.7,13.3-4.9c3.5-3,6-7.2,6.8-11.8c0-0.2,0.1-0.4,0.1-0.7c0.2-1.6,0.9-5.7,4.2-8.6l30.8-26.3
						c0.1-0.1,0.1-0.1,0.2-0.2l9.5-8.1c0.2-0.2,0.5-0.5,0.8-0.7c2.3-2,7.6-6.7,10.5-6.7c0.1,0,0.2,0,0.3,0l0.5,0.1
						c2.4,0.4,5.6,0.9,8.9,0.9c1.9,0,3.6-0.2,5.1-0.5c0.1,0,0.2,0,0.2-0.1l0,0c0,0,0,0,0,0c0.6-0.1,1.2-0.3,1.8-0.6
						c0.8-0.3,2.1-1,2.4-1.2c0,0,0,0,0.1,0c8.4-5.2,13.3-18.5,13.8-20c0.1-0.2,0.1-0.5,0.1-0.7c0-1.1-0.9-2-2-2c0,0,0,0,0,0
						c0,0-0.1,0-0.1,0c-0.3,0-0.6,0.1-0.8,0.2L167,68.8c-4.5-2.2-7.3-5.1-8.5-8.6c-1.3-3.8-0.3-7.2,0.2-8.5l16.2-8.3
						c0.7-0.3,1.1-1,1.1-1.8c0-0.7-0.4-1.4-1.1-1.8C174.7,39.9,169.7,37.3,163,37.3L163,37.3z M72.6,121.1l2.6-0.1
						c0.2,0,0.4,0,0.6-0.1l2.5-0.9l2.3,1.3c0.2,0.1,0.4,0.2,0.6,0.2l2.6,0.5l1.4,2.3c0.1,0.2,0.2,0.3,0.4,0.5l2,1.7l0.1,2.6
						c0,0.2,0,0.4,0.1,0.6l0.9,2.5l-1.3,2.3c-0.1,0.2-0.2,0.4-0.2,0.6l-0.5,2.6l-2.3,1.4c-0.2,0.1-0.3,0.2-0.5,0.4l-1.7,2l-2.6,0.1
						c-0.2,0-0.4,0-0.6,0.1l-2.5,0.9l-2.3-1.3c-0.2-0.1-0.4-0.2-0.6-0.2l-2.6-0.5l-1.4-2.3c-0.1-0.2-0.2-0.3-0.4-0.5l-2-1.7
						l-0.1-2.6c0-0.2,0-0.4-0.1-0.6l-0.9-2.5l1.3-2.3c0.1-0.2,0.2-0.4,0.2-0.6l0.5-2.6l2.3-1.4c0.2-0.1,0.3-0.2,0.5-0.4L72.6,121.1
						L72.6,121.1z"/>
				</g>
			</g>
			<g>
				<path class="st7" d="M77.5,112.7c5.2,0,10.5,2.2,14.1,6.5c6.6,7.8,5.7,19.5-2.1,26.1c-3.5,3-7.8,4.4-12,4.4
					c-5.2,0-10.5-2.2-14.1-6.5c-6.6-7.8-5.7-19.5,2.1-26.1C68.9,114.2,73.2,112.7,77.5,112.7 M77.5,110.7c-4.9,0-9.6,1.7-13.3,4.9
					c-8.6,7.3-9.6,20.3-2.3,28.9c3.9,4.6,9.6,7.2,15.6,7.2c4.9,0,9.6-1.7,13.3-4.9c8.6-7.3,9.6-20.3,2.3-28.9
					C89.2,113.4,83.5,110.7,77.5,110.7L77.5,110.7z"/>
			</g>
		</g>
		<path class="st8" d="M92.4,96.3c2.6,3.2,2.8,7.5-0.1,10.5c-2.8,3-8.6,3.7-12.4,2.3"/>
		<path class="st0" d="M111.6,102.8H110c-4.3,0-7.8-3.5-7.8-7.8V84c0-4.3,3.5-7.8,7.8-7.8h1.6c4.3,0,7.8,3.5,7.8,7.8v11
			C119.4,99.3,115.9,102.8,111.6,102.8z"/>
		<path class="st0" d="M173.3,108.9c-2,6.4-7.4,10.5-13.6,12.5c-4.9,1.5-10.2,1.7-15.3,1.7c-2.2,0-4.4-0.2-6.6-0.5
			c-6-0.9-12.2-3.3-16-8.3c-1.2-1.6-2.1-3.4-2.7-5.3c0,0-2.5-8.1-0.9-15.6c0,0,4.3-18.6,28-19.4c23.7,0.8,28,19.4,28,19.4
			C175.8,100.7,173.3,108.9,173.3,108.9z"/>
		<g>
			<path class="st2" d="M173.3,105.7c-2,6.4-7.4,10.5-13.6,12.5c-4.9,1.5-10.2,1.7-15.3,1.7c-2.2,0-4.4-0.2-6.6-0.5
				c-6-0.9-12.2-3.3-16-8.3c-1.2-1.6-2.1-3.4-2.7-5.3c0,0-1.2-3.9-1.4-8.7c-0.3,6.1,1.4,11.5,1.4,11.5c0.6,1.9,1.5,3.7,2.7,5.3
				c3.8,5,10,7.4,16,8.3c2.2,0.3,4.4,0.5,6.6,0.5c5.1,0,10.4-0.1,15.3-1.7c6.2-1.9,11.7-6,13.6-12.5c0,0,1.7-5.5,1.4-11.5
				C174.5,101.8,173.3,105.7,173.3,105.7z"/>
		</g>
		<path class="st4" d="M173.3,108.9c-2,6.4-7.4,10.5-13.6,12.5c-4.9,1.5-10.2,1.7-15.3,1.7c-2.2,0-4.4-0.2-6.6-0.5
			c-6-0.9-12.2-3.3-16-8.3c-1.2-1.6-2.1-3.4-2.7-5.3c0,0-2.5-8.1-0.9-15.6c0,0,4.3-18.6,28-19.4c23.7,0.8,28,19.4,28,19.4
			C175.8,100.7,173.3,108.9,173.3,108.9z"/>
		<path class="st2" d="M101.5,89.5c0,0,2.7,9.6,10.8,10.9l1,2c0,0-11.1,2.4-11.8-7.4V89.5z"/>
		<path class="st0" d="M182.6,101.1H181c-4.3,0-7.8-3.5-7.8-7.8v-11c0-4.3,3.5-7.8,7.8-7.8h1.6c4.3,0,7.8,3.5,7.8,7.8v11
			C190.4,97.6,186.9,101.1,182.6,101.1z"/>
		<path class="st4" d="M110.9,102.8h-1.6c-4.3,0-7.8-3.5-7.8-7.8V84c0-4.3,3.5-7.8,7.8-7.8h1.6c4.3,0,7.8,3.5,7.8,7.8v11
			C118.7,99.3,115.2,102.8,110.9,102.8z"/>
		<path class="st2" d="M190.9,87.8c0,0-2.7,9.6-10.8,10.9l-1,2c0,0,11.1,2.4,11.8-7.4V87.8z"/>
		<path class="st4" d="M182.6,101.1H181c-4.3,0-7.8-3.5-7.8-7.8v-11c0-4.3,3.5-7.8,7.8-7.8h1.6c4.3,0,7.8,3.5,7.8,7.8v11
			C190.4,97.6,186.9,101.1,182.6,101.1z"/>
		<path class="st5" d="M180.8,98.4c-2.5,8.2-9.5,13.5-17.4,16c-6.3,2-13,2.1-19.6,2.1c-2.8,0-5.6-0.2-8.4-0.7
			c-7.7-1.2-15.6-4.3-20.4-10.7c-1.5-2-2.7-4.3-3.4-6.8c0,0-3.2-10.4-1.1-19.9c0,0,5.5-23.7,35.7-24.8c30.3,1.1,35.8,24.8,35.8,24.8
			C184,88,180.8,98.4,180.8,98.4z"/>
		<ellipse class="st9" cx="146.2" cy="89.5" rx="31.1" ry="21.7"/>
		<path class="st10" d="M170.5,78.2c-2.5-2.5-4.9-4.1-6.7-5.1c-0.8-0.4-1.7-0.9-2.6-1.2c0,0,0,0,0,0c-0.1-0.1-0.3-0.1-0.4-0.2
			c-4.5-1.9-9.7-3-15.3-3c-0.7,0-1.3,0-2,0c-2,0.1-3.7,0.3-5.3,0.6c0,0-0.1,0-0.1,0c-6.4,1.1-11.9,3.7-15.8,7.2
			c-1.7,1.5-2.8,2.9-3.5,3.9c-0.3,0.4-0.6,0.9-0.8,1.3c0,0,0,0,0,0c-0.1,0.2-0.2,0.4-0.4,0.7c0,0.1-0.1,0.1-0.1,0.2
			c-0.1,0.1-0.1,0.2-0.2,0.4c-0.9,2-1.4,4.1-1.4,6.3c0,2.7,0.7,5.2,2,7.5c0,0,0,0,0,0c-3.2-10.8,5-18.2,5-18.2c0.9,2.6,6.1,3,11.5,1
			c4.3-1.6,7.5-4.3,8.1-6.6C157.6,71,170.2,78,170.5,78.2z"/>
		<g>
			<circle class="st0" cx="119.4" cy="38.1" r="1.4"/>
			<circle class="st0" cx="222.4" cy="145.7" r="1.4"/>
			<circle class="st0" cx="204.9" cy="130.6" r="1.4"/>
			<circle class="st0" cx="211.6" cy="107.4" r="1.4"/>
			<circle class="st0" cx="77.5" cy="85.1" r="1.4"/>
			<circle class="st0" cx="168.9" cy="29.2" r="1.4"/>
			<circle class="st0" cx="83.8" cy="67.3" r="1.4"/>
			<circle class="st0" cx="103.7" cy="144.3" r="1.4"/>
			<circle class="st0" cx="204.9" cy="98.4" r="0.7"/>
			<circle class="st0" cx="156.2" cy="22.4" r="0.7"/>
			<circle class="st0" cx="165" cy="18.5" r="0.7"/>
			<circle class="st0" cx="67.7" cy="83.6" r="0.7"/>
			<circle class="st0" cx="101.2" cy="137.7" r="0.7"/>
			<circle class="st0" cx="60.6" cy="109.2" r="0.7"/>
			<circle class="st0" cx="114.2" cy="55.2" r="0.7"/>
			<circle class="st0" cx="185" cy="51.9" r="0.7"/>
			<circle class="st0" cx="191.8" cy="121.3" r="0.7"/>
			<circle class="st0" cx="200.1" cy="117.9" r="0.7"/>
		</g>
	</g>
</g>
</svg>
