<?xml version="1.0" encoding="utf-8"?>
<!-- Generator: Adobe Illustrator 26.0.2, SVG Export Plug-In . SVG Version: 6.00 Build 0)  -->
<svg version="1.1" id="Layer_1" xmlns="http://www.w3.org/2000/svg" xmlns:xlink="http://www.w3.org/1999/xlink" x="0px" y="0px"
	 viewBox="0 0 184.1 187" style="enable-background:new 0 0 184.1 187;" xml:space="preserve">
<style type="text/css">
	.st0{fill:#FFFFFF;}
	.st1{fill:none;stroke:#170E3E;stroke-width:1.9764;stroke-linecap:round;stroke-linejoin:round;stroke-miterlimit:10;}
	.st2{fill:#C862FF;}
	.st3{fill:none;stroke:#170E3E;stroke-width:1.9764;stroke-linejoin:round;stroke-miterlimit:10;}
	.st4{fill:none;stroke:#170E3E;stroke-width:1.9764;stroke-miterlimit:10;}
	.st5{fill:#FFFFFF;stroke:#170E3E;stroke-width:1.9764;stroke-miterlimit:10;}
	.st6{fill:#00FFD4;}
	.st7{fill:#170E3E;}
	.st8{fill:#FFFFFF;stroke:#170E3E;stroke-width:1.9764;stroke-linecap:round;stroke-linejoin:round;stroke-miterlimit:10;}
	.st9{fill:#170E3E;stroke:#17103F;stroke-width:1.9764;stroke-miterlimit:10;}
	.st10{opacity:0.51;fill:#FFFFFF;}
	.st11{fill:#19103E;}
	.st12{fill:none;stroke:#19103E;stroke-width:1.4521;stroke-linecap:round;stroke-linejoin:round;stroke-miterlimit:10;}
	.st13{fill:#9E6EAF;}
	.st14{fill:none;stroke:#19103E;stroke-width:1.4521;stroke-linejoin:round;stroke-miterlimit:10;}
	.st15{fill:none;stroke:#19103E;stroke-width:1.4521;stroke-miterlimit:10;}
	.st16{fill:#FFFFFF;stroke:#19103E;stroke-width:1.4521;stroke-miterlimit:10;}
	.st17{fill:#57C3B7;}
	.st18{fill:#FFFFFF;stroke:#19103E;stroke-width:1.4521;stroke-linecap:round;stroke-linejoin:round;stroke-miterlimit:10;}
	.st19{fill:#19103E;stroke:#17113F;stroke-width:1.4521;stroke-miterlimit:10;}
	.st20{fill:none;stroke:#170E3E;stroke-width:1.4529;stroke-linecap:round;stroke-linejoin:round;stroke-miterlimit:10;}
	.st21{fill:none;stroke:#170E3E;stroke-width:1.4529;stroke-linejoin:round;stroke-miterlimit:10;}
	.st22{fill:none;stroke:#170E3E;stroke-width:1.4529;stroke-miterlimit:10;}
	.st23{fill:#FFFFFF;stroke:#170E3E;stroke-width:1.4529;stroke-miterlimit:10;}
	.st24{fill:#FFFFFF;stroke:#170E3E;stroke-width:1.4529;stroke-linecap:round;stroke-linejoin:round;stroke-miterlimit:10;}
	.st25{fill:#170E3E;stroke:#17103F;stroke-width:1.4529;stroke-miterlimit:10;}
</style>
<g>
	<path class="st0" d="M182.8,125.8c-1.9-8.6-6.9-15.8-10.7-23.7c-9.1-18.6-10.2-39.4-17.8-58.5c-0.9-2.2-1.8-4.4-2.9-6.5
		c-11-22.5-38.1-44-64.3-35C73.7,6.7,66.4,18.4,59,29.6C50.2,43,38.7,52.7,26,62.4c-10.9,8.4-20.7,18.4-24.3,32
		c-5.8,21.8,3,46.1,18.7,61.7c9.5,9.4,22.2,14.2,32.8,22.2l89.3,0.3c17.1-1.4,31.8-9.3,38.6-25.8C184.8,144,184.8,135,182.8,125.8z
		 M11.8,110c-0.4,0-0.7-0.3-0.7-0.7c0-0.4,0.3-0.7,0.7-0.7c0.4,0,0.7,0.3,0.7,0.7C12.5,109.6,12.2,110,11.8,110z M18.8,84.3
		c-0.4,0-0.7-0.3-0.7-0.7c0-0.4,0.3-0.7,0.7-0.7c0.4,0,0.7,0.3,0.7,0.7C19.6,84,19.2,84.3,18.8,84.3z M28.6,86.5
		c-0.8,0-1.4-0.6-1.4-1.4s0.6-1.4,1.4-1.4c0.8,0,1.4,0.6,1.4,1.4S29.4,86.5,28.6,86.5z M35,68.7c-0.8,0-1.4-0.6-1.4-1.4
		s0.6-1.4,1.4-1.4c0.8,0,1.4,0.6,1.4,1.4S35.8,68.7,35,68.7z M52.3,138.4c-0.4,0-0.7-0.3-0.7-0.7c0-0.4,0.3-0.7,0.7-0.7
		c0.4,0,0.7,0.3,0.7,0.7C53,138.1,52.7,138.4,52.3,138.4z M54.8,145.7c-0.8,0-1.4-0.6-1.4-1.4c0-0.8,0.6-1.4,1.4-1.4
		s1.4,0.6,1.4,1.4C56.3,145.1,55.6,145.7,54.8,145.7z M65.3,55.9c-0.4,0-0.7-0.3-0.7-0.7c0-0.4,0.3-0.7,0.7-0.7
		c0.4,0,0.7,0.3,0.7,0.7C66.1,55.6,65.7,55.9,65.3,55.9z M70.5,39.5c-0.8,0-1.4-0.6-1.4-1.4c0-0.8,0.6-1.4,1.4-1.4s1.4,0.6,1.4,1.4
		C72,38.9,71.3,39.5,70.5,39.5z M107.4,23.1c-0.4,0-0.7-0.3-0.7-0.7c0-0.4,0.3-0.7,0.7-0.7s0.7,0.3,0.7,0.7
		C108.1,22.8,107.8,23.1,107.4,23.1z M116.2,19.3c-0.4,0-0.7-0.3-0.7-0.7c0-0.4,0.3-0.7,0.7-0.7c0.4,0,0.7,0.3,0.7,0.7
		C116.9,18.9,116.6,19.3,116.2,19.3z M120.1,30.6c-0.8,0-1.4-0.6-1.4-1.4s0.6-1.4,1.4-1.4s1.4,0.6,1.4,1.4S120.9,30.6,120.1,30.6z
		 M136.2,52.7c-0.4,0-0.7-0.3-0.7-0.7c0-0.4,0.3-0.7,0.7-0.7c0.4,0,0.7,0.3,0.7,0.7C136.9,52.3,136.6,52.7,136.2,52.7z M142.9,122.1
		c-0.4,0-0.7-0.3-0.7-0.7c0-0.4,0.3-0.7,0.7-0.7c0.4,0,0.7,0.3,0.7,0.7C143.6,121.7,143.3,122.1,142.9,122.1z M151.2,118.6
		c-0.4,0-0.7-0.3-0.7-0.7c0-0.4,0.3-0.7,0.7-0.7c0.4,0,0.7,0.3,0.7,0.7C152,118.3,151.6,118.6,151.2,118.6z M156.1,97.7
		c0.4,0,0.7,0.3,0.7,0.7c0,0.4-0.3,0.7-0.7,0.7c-0.4,0-0.7-0.3-0.7-0.7C155.4,98,155.7,97.7,156.1,97.7z M156.1,132
		c-0.8,0-1.4-0.6-1.4-1.4s0.6-1.4,1.4-1.4s1.4,0.6,1.4,1.4S156.9,132,156.1,132z M162.8,108.9c-0.8,0-1.4-0.6-1.4-1.4
		c0-0.8,0.6-1.4,1.4-1.4s1.4,0.6,1.4,1.4C164.2,108.2,163.6,108.9,162.8,108.9z M173.6,147.2c-0.8,0-1.4-0.6-1.4-1.4
		s0.6-1.4,1.4-1.4c0.8,0,1.4,0.6,1.4,1.4S174.4,147.2,173.6,147.2z"/>
	<path class="st0" d="M120,110.8c0,0,20.4,10.5,25.4,43.3l-13.6,17.5L115,146.1l-1.6-14.4v-15L120,110.8z"/>
	<path class="st1" d="M120.7,110.6c0,0,20.4,10.5,25.4,43.3l-13.6,17.5l-16.8-25.5l-1.6-14.4v-15L120.7,110.6z"/>
	<g>
		<g>
			<path class="st0" d="M153.9,181.9c-2.2,2.7-3.8,3.6-6.2,3.9c-2.2,0.3-6.8-0.1-8.8-1c-3.4-1.5-7.6-5.3-16.3-5.7
				c0,0-11.9,0.1-25.1,0.1c-13.2,0.1-25.1-0.1-25.1-0.1c-8.7,0.4-12.9,4.3-16.3,5.7c-2.1,0.9-6.7,1.2-8.8,1c-2.3-0.3-4-1.2-6.2-3.9
				c-2.2-2.7-5.3-8.8-5-17.4c0.5-14.5,14.8-15.7,17.8-5c1.8-4.3,4.3-6.1,6.5-7.3c0.9-0.5,2.2-0.9,3.7-1c2.8-12.5,7.3-29.1,14.2-47.4
				h40.5c7,18.5,11.5,35.2,14.3,47.8c0.6,0.2,1.2,0.4,1.7,0.7c2.2,1.2,4.7,3,6.5,7.3c2.9-10.7,17.3-9.5,17.8,5
				C159.2,173.1,156.1,179.2,153.9,181.9z"/>
		</g>
	</g>
	<polygon class="st0" points="99.6,113.8 99.6,113.8 99.6,113.7 	"/>
	<path class="st2" d="M55.1,162.5c0,0,10.4,16.5,21.4,1c0,0,3,10.6,21,10.7v5l-25.2-0.1c0,0-9.5,0.4-16.3,5.7l-1.9,0.1l-0.9-0.4
		c0,0,2-0.3,0.8-5.3C54,179.2,57.1,173.2,55.1,162.5z"/>
	<path class="st2" d="M139.9,162.5c0,0-10.4,16.5-21.4,1c0,0-3,10.6-21,10.7v5l25.2-0.1c0,0,9.5,0.4,16.3,5.7l1.9,0.1l0.9-0.4
		c0,0-2-0.3-0.8-5.3C141,179.2,137.9,173.2,139.9,162.5z"/>
	<path class="st0" d="M61.4,135.9c0,0,3.1,0,7-0.5c2.9-2.8,6.3-4.9,10.2-6.1c2.4-1.2,4.8-2.1,7.4-2.6c-0.3-0.2-0.6-0.5-1-0.7
		c-3.9-3.9-6.7-8.5-8.5-13.7c-6.8,0.4-22.4,0.4-26.7-6.3c0,0,0,0,0,0c0.3-2.5-0.3-4.8-0.5-5.4c0.2-0.8,0.3-1.6,0.4-2.4
		c0.2-1.6,0.4-4.2-1.4-5c-0.7-0.3-1.3,0-1.9,0.4c-1.1,0.8-1.9,2-2.6,3.1c-0.2-0.2-0.5-0.4-0.7-0.6c-0.1,0-0.1-0.1-0.2-0.1
		c-1.3-0.9-2.9-1.3-4.2-1.6c-1.7-0.3-3-0.2-3-0.2c-0.8,0.1-1.6,0.3-2.4,0.6c-1.8,0.7-3.4,1.9-4.5,3.4c-4.7,6.1-1.2,14.8,2.2,20.7
		c2.9,5.1,7.1,9.5,12.2,12.4C48.7,134.5,55.1,135.9,61.4,135.9z"/>
	<path class="st1" d="M46.4,152.5c0,0,5.8,0.1,7.9,7.1c0,0,1.2,3.6,1.4,6.7"/>
	<path class="st2" d="M69.3,129.5c-3.5,1.1-7.4,1.3-11,1.1c-3.9-0.2-7.8-1.1-11.4-2.7c-5.3-2.4-10-6-14-10.1
		c-1.8-1.9-3.6-3.9-5.1-6.1c0,0,6.9,22.2,30.8,24.2l7.2-0.2l2.7-1.7L69.3,129.5z"/>
	<path class="st1" d="M148.6,152.5c0,0-5.8,0.1-7.9,7.1c0,0-1.2,3.6-1.4,6.7"/>
	<line class="st1" x1="64" y1="151.2" x2="69.5" y2="128.6"/>
	<path class="st1" d="M67.7,135.2c-10.1,2.1-21.7-0.6-29.5-7.5c-4-3.6-7.2-8.1-9.4-13c-3-6.8-3.8-17.3,5-20.1c3-1,7.9-0.5,10.1,2.1
		c1.2-2,4.7-6.1,5.9-1.7c0.5,1.7,0,3.8-0.5,5.5c0,0,0.9,2.6,0.5,5.4c0,0,2.9,7,25.2,6.4l1.5-0.1"/>
	<path class="st1" d="M148.6,152.5c4.3,0,5.7,1.6,5.7,1.6c7.3,5.3,3.8,18.7,3.8,18.7c-1.6,7.2-6,13.7-14.2,13.2
		c-3.5-0.2-6.5-1.7-9.5-3.5c-2.7-1.6-6-2.5-9.1-3c-6.5-1-13.1-0.4-19.6-0.4c-8.8,0-17.5,0-26.3-0.1c-4.8,0-9.6,0.2-14.2,1.5
		c-4.2,1.2-7.7,4.1-12,5.1c-1,0.2-2,0.4-3,0.4c-11,0.5-14.7-12.5-14.2-21.5c0.7-13.8,10.8-12,10.8-12"/>
	<g>
		<path class="st1" d="M41,153.7c1.9-1.3,4.3-0.8,6.2,0.5c3.7,2.4,4.6,7.2,4.8,11.3c0.1,2.4,0,4.8,0.3,7.2c0.3,2.4,1.5,4.5,1.8,6.9
			c0.3,2.3,0.1,5.1-2.3,6.3"/>
		<line class="st3" x1="36.4" y1="161.4" x2="51.6" y2="161.4"/>
		<line class="st3" x1="36.4" y1="168.1" x2="51.6" y2="168.1"/>
		<line class="st3" x1="37.1" y1="174.3" x2="52.3" y2="174.3"/>
		<line class="st3" x1="39.9" y1="180.6" x2="54" y2="180.6"/>
	</g>
	<g>
		<path class="st1" d="M153.5,153.6c-1.5-0.7-3-1-4.3-0.5c-1.5,0.5-2.9,1.5-3.8,2.8c-2.1,2.6-2.7,6.2-2.8,9.5
			c-0.1,2.4,0,4.8-0.3,7.2c-0.3,2.4-1.5,4.5-1.8,6.9c-0.3,2.3-0.1,5.1,2.3,6.3"/>
		<line class="st3" x1="158.1" y1="161.2" x2="142.9" y2="161.2"/>
		<line class="st3" x1="158.1" y1="168" x2="142.9" y2="168"/>
		<line class="st3" x1="157.4" y1="174.2" x2="142.2" y2="174.2"/>
		<line class="st3" x1="154.6" y1="180.4" x2="140.5" y2="180.4"/>
	</g>
	<path class="st2" d="M127.5,130.6l6.3,11.4c0,0,5.8,0.9,4.8,13.1l-5.7-3.5l-2.6-10.2L127.5,130.6z"/>
	<line class="st1" x1="133" y1="151.6" x2="127" y2="128.6"/>
	<path class="st0" d="M132.7,154.9H62.1c-1.3,0-2.4-1.1-2.4-2.4v-4.1c0-1.3,1.1-2.4,2.4-2.4h70.6c1.3,0,2.4,1.1,2.4,2.4v4.1
		C135.1,153.8,134,154.9,132.7,154.9z"/>
	<path class="st2" d="M59.8,149.6c0,0,10.4,2.4,27.9,3.7v1.7H60.9C60.9,155.1,59.6,153.7,59.8,149.6z"/>
	<path class="st2" d="M135.4,149.6c0,0-10.4,2.4-27.9,3.7v1.7h26.7C134.3,155.1,135.6,153.7,135.4,149.6z"/>
	<path class="st4" d="M132.8,155.1H62.2c-1.3,0-2.4-1.1-2.4-2.4v-4.1c0-1.3,1.1-2.4,2.4-2.4h70.6c1.3,0,2.4,1.1,2.4,2.4v4.1
		C135.2,154,134.1,155.1,132.8,155.1z"/>
	<path class="st0" d="M56.1,155.1c0,0,6.7-6.9,12.5-1.8l6,6.1l-1.8,5.2l-6.9-1l-8.2-4.9L56.1,155.1z"/>
	<path class="st0" d="M138.6,155.1c0,0-6.7-6.9-12.5-1.8l-6,6.1l1.8,5.2l6.9-1l8.2-4.9L138.6,155.1z"/>
	<circle class="st5" cx="97.4" cy="150.5" r="10.1"/>
	<g>
		<circle class="st0" cx="100.3" cy="150.5" r="3.4"/>
		<path class="st6" d="M100.3,149.1c-1.9,0-3.4,1.5-3.4,3.4c0,0.1,0,0.2,0,0.3c0.5,0.2,1,0.6,1.3,1c0.4,0.1,0.8,0.3,1.2,0.6
			c0.1,0,0.2,0,0.3,0c0.1,0,0.2,0,0.3,0c0.3-0.1,0.7-0.2,1-0.2c0.3,0,0.6,0,0.9,0.1c0.2-0.2,0.4-0.3,0.6-0.4
			c0.3-0.5,0.6-0.9,1.1-1.3c0-0.1,0-0.1,0-0.2C103.7,150.7,102.2,149.1,100.3,149.1z"/>
		<circle class="st4" cx="100.3" cy="150.5" r="3.4"/>
	</g>
	<path class="st1" d="M77.6,167.1c-2.7-11.6-10.3-14.4-10.3-14.4c-5.2-2.6-10.6,1.2-13.2,5.6"/>
	<path class="st1" d="M117.6,167.1c2.7-11.6,10.3-14.4,10.3-14.4c5.2-2.6,10.6,1.2,13.2,5.6"/>
	<polyline class="st5" points="92.4,142 92.4,149.3 94.4,151.4 94.4,159.8 	"/>
	<g>
		<path class="st0" d="M55.6,112.4c-1.1,0-2.1-0.4-2.7-1.2l-1-1.2c-1.4-1.6-0.9-4.3,1.1-6l28.3-24.1c1-0.9,2.3-1.3,3.4-1.3
			c1.1,0,2.1,0.4,2.7,1.2l1,1.2c1.4,1.6,0.9,4.3-1.1,6L59.1,111C58,111.9,56.8,112.4,55.6,112.4z"/>
		<path class="st7" d="M84.7,79.5c0.8,0,1.5,0.3,1.9,0.8l1,1.2c1,1.2,0.6,3.3-1,4.6l-28.3,24.1c-0.9,0.7-1.9,1.1-2.8,1.1
			c-0.8,0-1.5-0.3-1.9-0.8l-1-1.2c-1-1.2-0.6-3.3,1-4.6L82,80.7C82.8,79.9,83.8,79.5,84.7,79.5 M84.7,77.6L84.7,77.6
			c-1.4,0-2.9,0.6-4.1,1.6l-28.3,24.1c-2.5,2.1-3,5.4-1.3,7.4l1,1.2c0.8,1,2.1,1.5,3.4,1.5c1.4,0,2.9-0.6,4.1-1.6L88,87.7
			c2.5-2.1,3-5.3,1.3-7.4l-1-1.2C87.3,78.1,86.1,77.6,84.7,77.6L84.7,77.6z"/>
	</g>
	<g>
		<path class="st0" d="M136.2,61.9l-18,9.2c-16.5-7.6-9.8-20.7-9.8-20.7l16.8-8.6c0,0-10.2-5.3-20.7-0.2c-0.2,0.1-1,0.5-2.1,1.2
			c-0.5,0.3-1,0.7-1.5,1c-3.1,2.3-7.1,6.5-8.1,12.8C91.3,66.6,82,72.9,79.7,74.9L70,83.2l0,0l-30.8,26.2c-4.5,3.8-10.2,3.2-11,3.3
			c-4.1,0.1-8.2,1.6-11.5,4.4c-7.8,6.6-8.7,18.3-2.1,26.1c6.6,7.8,18.3,8.7,26.1,2.1c3.4-2.9,5.4-6.7,6.2-10.7
			c0.2-0.8,0.5-6.5,5-10.4L82.6,98l0,0l9.7-8.3c2.5-2.1,9.2-8.5,13.3-7.8c3.5,0.6,9,1.6,13.7,0.5c0.1,0,0.1,0,0.2,0c0,0,0,0,0,0
			c0.6-0.1,1.1-0.3,1.6-0.5c0.7-0.3,2.1-1.1,2.1-1.1C131.5,75.8,136.2,61.9,136.2,61.9z M40.4,135.4l-0.7,3.5l-3,1.8l-2.3,2.7
			l-3.5,0.1l-3.3,1.2l-3.1-1.7l-3.5-0.7l-1.8-3l-2.7-2.3l-0.1-3.5l-1.2-3.3l1.7-3.1l0.7-3.5l3-1.8l2.3-2.7l3.5-0.1l3.3-1.2l3.1,1.7
			l3.5,0.7l1.8,3l2.7,2.3l0.1,3.5l1.2,3.3L40.4,135.4z"/>
		<g>
			<path class="st6" d="M93.9,50.4c0,0,8.8-3,14.3-1.6c0,0,7.7-6.9,17.3-8.3l0.4,0.9l0,1.2l-16.7,8.3l-1,4.3c0,0-7.6-3.2-16.4-1
				L93.9,50.4z"/>
			<path class="st6" d="M109.8,78.2c-3.6,0.1-6.8-0.1-10.4,1.8c-2.1,1.1-3.8,2.5-5.6,4.1c0,0-48,40.7-48,40.7l1.7,7
				c1.2-4.3,4.5-7.6,8.5-9.5L92,91.9c2.9-6.6,10.8-10.5,17.8-9.1c0.3,0.1,0.6,0.1,0.8,0.2c0.3-0.1,0.9,1,1.3,1
				c1.9-0.6,3.8-0.5,5.8,0c0.9,0,1.7-1.2,2.6-1.1c11-4.3,15.4-17.7,15.4-17.7c-5.1,7.8-15.1,12.4-24.2,12.9
				C111,78.2,110.4,78.2,109.8,78.2z"/>
			<path class="st6" d="M43.1,119.8c1.1,1.2,1.3,4.7,1.5,6.3c0.3,2.5,0.4,5-0.1,7.5c-2.8,14.4-20.4,17.9-30.7,8.9c0,0,5,13.9,25,5.2
				c2.7-1.2,5.3-5.2,6.8-7.5c3.5-5.8,3.4-12.5-0.5-18.1C44.4,121.3,43.8,120.5,43.1,119.8z"/>
			<g>
				<path class="st7" d="M114.2,39.3c6.3,0,10.9,2.4,10.9,2.4l-16.8,8.6c0,0-6.6,13.1,9.8,20.7l18-9.2c0,0-4.8,14-13,19
					c0,0-1.4,0.8-2.1,1.1c-0.5,0.2-1.1,0.4-1.6,0.5c0,0,0,0,0,0c0,0,0,0,0,0c-0.1,0-0.1,0-0.2,0c-1.5,0.3-3.1,0.5-4.7,0.5
					c-3.3,0-6.6-0.6-9-1c-0.2,0-0.4,0-0.6,0c-4.1,0-10.3,5.8-12.7,7.9L82.6,98l0,0l-30.8,26.3c-4.5,3.8-4.8,9.6-5,10.4
					c-0.8,4-2.8,7.8-6.2,10.7c-3.5,3-7.8,4.4-12,4.4c-5.2,0-10.5-2.2-14.1-6.5c-6.6-7.8-5.7-19.5,2.1-26.1c3.4-2.9,7.4-4.3,11.5-4.4
					c0.1,0,0.2,0,0.4,0c0.1,0,0.3,0,0.5,0c2,0,6.5-0.1,10.1-3.3L70,83.2l0,0l9.7-8.2c2.4-2,11.6-8.4,13.2-18.5
					c1-6.3,5-10.5,8.1-12.8c0.5-0.4,0.9-0.7,1.5-1c1.1-0.7,1.8-1.1,2.1-1.2C107.8,39.8,111.2,39.3,114.2,39.3 M27.6,144.6l3.3-1.2
					l3.5-0.1l2.3-2.7l3-1.8l0.7-3.5l1.7-3.1l-1.2-3.3l-0.1-3.5l-2.7-2.3l-1.8-3l-3.5-0.7l-3.1-1.7l-3.3,1.2l-3.5,0.1l-2.3,2.7
					l-3,1.8l-0.7,3.5l-1.7,3.1l1.2,3.3l0.1,3.5l2.7,2.3l1.8,3l3.5,0.7L27.6,144.6 M136.2,61.9L136.2,61.9 M114.2,37.3
					c-3.7,0-7.3,0.8-10.5,2.4c-0.5,0.2-1.4,0.7-2.4,1.3c-0.6,0.3-1.1,0.7-1.6,1.1c-3.4,2.6-7.7,7.1-8.8,14.1
					c-1.3,8.3-8.4,14-11.5,16.4c-0.4,0.3-0.8,0.6-1,0.8l-9.5,8.1c-0.1,0-0.1,0.1-0.2,0.1l-30.8,26.2c-3.3,2.8-7.5,2.8-8.9,2.8
					l-0.3,0l-0.2,0c-0.2,0-0.4,0-0.5,0c-4.7,0.1-9.2,1.9-12.7,4.9c-4.2,3.6-6.7,8.5-7.1,14c-0.4,5.5,1.3,10.8,4.8,14.9
					c3.9,4.6,9.6,7.2,15.6,7.2c4.9,0,9.6-1.7,13.3-4.9c3.5-3,6-7.2,6.8-11.8c0-0.2,0.1-0.4,0.1-0.7c0.2-1.6,0.9-5.7,4.2-8.6
					l30.8-26.3c0.1-0.1,0.1-0.1,0.2-0.2l9.5-8.1c0.2-0.2,0.5-0.5,0.8-0.7c2.3-2,7.6-6.7,10.5-6.7c0.1,0,0.2,0,0.3,0l0.5,0.1
					c2.4,0.4,5.6,0.9,8.9,0.9c1.9,0,3.6-0.2,5.1-0.5c0.1,0,0.2,0,0.2-0.1l0,0c0,0,0,0,0,0c0.6-0.1,1.2-0.3,1.8-0.6
					c0.8-0.3,2.1-1,2.4-1.2c0,0,0,0,0.1,0c8.4-5.2,13.3-18.5,13.8-20c0.1-0.2,0.1-0.5,0.1-0.7c0-1.1-0.9-2-2-2c0,0,0,0,0,0
					c0,0-0.1,0-0.1,0c-0.3,0-0.6,0.1-0.8,0.2l-17.1,8.7c-4.5-2.2-7.3-5.1-8.5-8.6c-1.3-3.8-0.3-7.2,0.2-8.5l16.2-8.3
					c0.7-0.3,1.1-1,1.1-1.8c0-0.7-0.4-1.4-1.1-1.8C125.8,39.9,120.9,37.3,114.2,37.3L114.2,37.3z M23.8,121.1l2.6-0.1
					c0.2,0,0.4,0,0.6-0.1l2.5-0.9l2.3,1.3c0.2,0.1,0.4,0.2,0.6,0.2L35,122l1.4,2.3c0.1,0.2,0.2,0.3,0.4,0.5l2,1.7l0.1,2.6
					c0,0.2,0,0.4,0.1,0.6l0.9,2.5l-1.3,2.3c-0.1,0.2-0.2,0.4-0.2,0.6l-0.5,2.6l-2.3,1.4c-0.2,0.1-0.3,0.2-0.5,0.4l-1.7,2l-2.6,0.1
					c-0.2,0-0.4,0-0.6,0.1l-2.5,0.9l-2.3-1.3c-0.2-0.1-0.4-0.2-0.6-0.2l-2.6-0.5l-1.4-2.3c-0.1-0.2-0.2-0.3-0.4-0.5l-2-1.7l-0.1-2.6
					c0-0.2,0-0.4-0.1-0.6l-0.9-2.5l1.3-2.3c0.1-0.2,0.2-0.4,0.2-0.6l0.5-2.6l2.3-1.4c0.2-0.1,0.3-0.2,0.5-0.4L23.8,121.1L23.8,121.1
					z"/>
			</g>
		</g>
		<g>
			<path class="st7" d="M28.6,112.7c5.2,0,10.5,2.2,14.1,6.5c6.6,7.8,5.7,19.5-2.1,26.1c-3.5,3-7.8,4.4-12,4.4
				c-5.2,0-10.5-2.2-14.1-6.5c-6.6-7.8-5.7-19.5,2.1-26.1C20.1,114.2,24.4,112.7,28.6,112.7 M28.6,110.7c-4.9,0-9.6,1.7-13.3,4.9
				C6.7,123,5.7,136,13,144.6c3.9,4.6,9.6,7.2,15.6,7.2c4.9,0,9.6-1.7,13.3-4.9c8.6-7.3,9.6-20.3,2.3-28.9
				C40.3,113.4,34.6,110.7,28.6,110.7L28.6,110.7z"/>
		</g>
	</g>
	<path class="st8" d="M43.6,96.3c2.6,3.2,2.8,7.5-0.1,10.5c-2.8,3-8.6,3.7-12.4,2.3"/>
	<path class="st0" d="M62.7,102.8h-1.6c-4.3,0-7.8-3.5-7.8-7.8V84c0-4.3,3.5-7.8,7.8-7.8h1.6c4.3,0,7.8,3.5,7.8,7.8v11
		C70.5,99.3,67,102.8,62.7,102.8z"/>
	<path class="st0" d="M124.5,108.9c-2,6.4-7.4,10.5-13.6,12.5c-4.9,1.5-10.2,1.7-15.3,1.7c-2.2,0-4.4-0.2-6.6-0.5
		c-6-0.9-12.2-3.3-16-8.3c-1.2-1.6-2.1-3.4-2.7-5.3c0,0-2.5-8.1-0.9-15.6c0,0,4.3-18.6,28-19.4c23.7,0.8,28,19.4,28,19.4
		C126.9,100.7,124.5,108.9,124.5,108.9z"/>
	<g>
		<path class="st2" d="M124.5,105.7c-2,6.4-7.4,10.5-13.6,12.5c-4.9,1.5-10.2,1.7-15.3,1.7c-2.2,0-4.4-0.2-6.6-0.5
			c-6-0.9-12.2-3.3-16-8.3c-1.2-1.6-2.1-3.4-2.7-5.3c0,0-1.2-3.9-1.4-8.7c-0.3,6.1,1.4,11.5,1.4,11.5c0.6,1.9,1.5,3.7,2.7,5.3
			c3.8,5,10,7.4,16,8.3c2.2,0.3,4.4,0.5,6.6,0.5c5.1,0,10.4-0.1,15.3-1.7c6.2-1.9,11.7-6,13.6-12.5c0,0,1.7-5.5,1.4-11.5
			C125.6,101.8,124.5,105.7,124.5,105.7z"/>
	</g>
	<path class="st4" d="M124.5,108.9c-2,6.4-7.4,10.5-13.6,12.5c-4.9,1.5-10.2,1.7-15.3,1.7c-2.2,0-4.4-0.2-6.6-0.5
		c-6-0.9-12.2-3.3-16-8.3c-1.2-1.6-2.1-3.4-2.7-5.3c0,0-2.5-8.1-0.9-15.6c0,0,4.3-18.6,28-19.4c23.7,0.8,28,19.4,28,19.4
		C126.9,100.7,124.5,108.9,124.5,108.9z"/>
	<path class="st2" d="M52.7,89.5c0,0,2.7,9.6,10.8,10.9l1,2c0,0-11.1,2.4-11.8-7.4V89.5z"/>
	<path class="st0" d="M133.8,101.1h-1.6c-4.3,0-7.8-3.5-7.8-7.8v-11c0-4.3,3.5-7.8,7.8-7.8h1.6c4.3,0,7.8,3.5,7.8,7.8v11
		C141.6,97.6,138.1,101.1,133.8,101.1z"/>
	<path class="st4" d="M62.1,102.8h-1.6c-4.3,0-7.8-3.5-7.8-7.8V84c0-4.3,3.5-7.8,7.8-7.8h1.6c4.3,0,7.8,3.5,7.8,7.8v11
		C69.8,99.3,66.3,102.8,62.1,102.8z"/>
	<path class="st2" d="M142.1,87.8c0,0-2.7,9.6-10.8,10.9l-1,2c0,0,11.1,2.4,11.8-7.4V87.8z"/>
	<path class="st4" d="M133.8,101.1h-1.6c-4.3,0-7.8-3.5-7.8-7.8v-11c0-4.3,3.5-7.8,7.8-7.8h1.6c4.3,0,7.8,3.5,7.8,7.8v11
		C141.6,97.6,138.1,101.1,133.8,101.1z"/>
	<path class="st5" d="M132,98.4c-2.5,8.2-9.5,13.5-17.4,16c-6.3,2-13,2.1-19.6,2.1c-2.8,0-5.6-0.2-8.4-0.7
		c-7.7-1.2-15.6-4.3-20.4-10.7c-1.5-2-2.7-4.3-3.4-6.8c0,0-3.2-10.4-1.1-19.9c0,0,5.5-23.7,35.7-24.8c30.3,1.1,35.8,24.8,35.8,24.8
		C135.2,88,132,98.4,132,98.4z"/>
	<ellipse class="st9" cx="97.4" cy="89.5" rx="31.1" ry="21.7"/>
	<path class="st10" d="M121.7,78.2c-2.5-2.5-4.9-4.1-6.7-5.1c-0.8-0.4-1.7-0.9-2.6-1.2c0,0,0,0,0,0c-0.1-0.1-0.3-0.1-0.4-0.2
		c-4.5-1.9-9.7-3-15.3-3c-0.7,0-1.3,0-2,0c-2,0.1-3.7,0.3-5.3,0.6c0,0-0.1,0-0.1,0c-6.4,1.1-11.9,3.7-15.8,7.2
		c-1.7,1.5-2.8,2.9-3.5,3.9c-0.3,0.4-0.6,0.9-0.8,1.3c0,0,0,0,0,0c-0.1,0.2-0.2,0.4-0.4,0.7c0,0.1-0.1,0.1-0.1,0.2
		c-0.1,0.1-0.1,0.2-0.2,0.4c-0.9,2-1.4,4.1-1.4,6.3c0,2.7,0.7,5.2,2,7.5c0,0,0,0,0,0c-3.2-10.8,5-18.2,5-18.2c0.9,2.6,6.1,3,11.5,1
		c4.3-1.6,7.5-4.3,8.1-6.6C108.8,71,121.3,78,121.7,78.2z"/>
</g>
</svg>
