<svg xmlns="http://www.w3.org/2000/svg" version="1.1" xmlns:xlink="http://www.w3.org/1999/xlink" xmlns:svgjs="http://svgjs.com/svgjs" width="1496" height="967" preserveAspectRatio="none" viewBox="0 0 1496 967"><g mask="url(&quot;#SvgjsMask20897&quot;)" fill="none"><rect width="1496" height="967" x="0" y="0" fill="url(#SvgjsLinearGradient20898)"></rect><use xlink:href="#SvgjsSymbol20905" x="0" y="0"></use><use xlink:href="#SvgjsSymbol20905" x="0" y="720"></use><use xlink:href="#SvgjsSymbol20905" x="720" y="0"></use><use xlink:href="#SvgjsSymbol20905" x="720" y="720"></use><use xlink:href="#SvgjsSymbol20905" x="1440" y="0"></use><use xlink:href="#SvgjsSymbol20905" x="1440" y="720"></use></g><defs><mask id="SvgjsMask20897"><rect width="1496" height="967" fill="#ffffff"></rect></mask><linearGradient x1="50%" y1="100%" x2="50%" y2="0%" gradientUnits="userSpaceOnUse" id="SvgjsLinearGradient20898"><stop stop-color="rgba(146, 64, 255, 1)" offset="0"></stop><stop stop-color="rgba(0, 227, 255, 1)" offset="1"></stop></linearGradient><path d="M-1 0 a1 1 0 1 0 2 0 a1 1 0 1 0 -2 0z" id="SvgjsPath20904"></path><path d="M-3 0 a3 3 0 1 0 6 0 a3 3 0 1 0 -6 0z" id="SvgjsPath20899"></path><path d="M-5 0 a5 5 0 1 0 10 0 a5 5 0 1 0 -10 0z" id="SvgjsPath20901"></path><path d="M2 -2 L-2 2z" id="SvgjsPath20900"></path><path d="M6 -6 L-6 6z" id="SvgjsPath20903"></path><path d="M30 -30 L-30 30z" id="SvgjsPath20902"></path></defs><symbol id="SvgjsSymbol20905"><use xlink:href="#SvgjsPath20899" x="30" y="30" stroke="rgba(246, 149, 237, 1)"></use><use xlink:href="#SvgjsPath20900" x="30" y="90" stroke="rgba(0, 76, 221, 1)"></use><use xlink:href="#SvgjsPath20901" x="30" y="150" stroke="rgba(255, 122, 246, 1)"></use><use xlink:href="#SvgjsPath20902" x="30" y="210" stroke="rgba(46, 113, 243, 1)" stroke-width="3"></use><use xlink:href="#SvgjsPath20903" x="30" y="270" stroke="rgba(77, 138, 255, 1)"></use><use xlink:href="#SvgjsPath20901" x="30" y="330" stroke="rgba(183, 77, 255, 1)"></use><use xlink:href="#SvgjsPath20903" x="30" y="390" stroke="rgba(183, 77, 255, 1)"></use><use xlink:href="#SvgjsPath20899" x="30" y="450" stroke="rgba(217, 175, 217, 1)"></use><use xlink:href="#SvgjsPath20899" x="30" y="510" stroke="rgba(183, 77, 255, 1)"></use><use xlink:href="#SvgjsPath20902" x="30" y="570" stroke="rgba(246, 149, 237, 1)" stroke-width="3"></use><use xlink:href="#SvgjsPath20904" x="30" y="630" stroke="rgba(46, 113, 243, 1)"></use><use xlink:href="#SvgjsPath20904" x="30" y="690" stroke="rgba(46, 113, 243, 1)"></use><use xlink:href="#SvgjsPath20901" x="90" y="30" stroke="rgba(246, 149, 237, 1)"></use><use xlink:href="#SvgjsPath20900" x="90" y="90" stroke="rgba(183, 77, 255, 1)"></use><use xlink:href="#SvgjsPath20903" x="90" y="150" stroke="rgba(0, 76, 221, 1)"></use><use xlink:href="#SvgjsPath20899" x="90" y="210" stroke="rgba(255, 122, 246, 1)"></use><use xlink:href="#SvgjsPath20900" x="90" y="270" stroke="rgba(46, 113, 243, 1)"></use><use xlink:href="#SvgjsPath20900" x="90" y="330" stroke="rgba(246, 149, 237, 1)"></use><use xlink:href="#SvgjsPath20901" x="90" y="390" stroke="rgba(77, 138, 255, 1)"></use><use xlink:href="#SvgjsPath20901" x="90" y="450" stroke="rgba(246, 149, 237, 1)"></use><use xlink:href="#SvgjsPath20904" x="90" y="510" stroke="rgba(217, 175, 217, 1)"></use><use xlink:href="#SvgjsPath20904" x="90" y="570" stroke="rgba(0, 76, 221, 1)"></use><use xlink:href="#SvgjsPath20901" x="90" y="630" stroke="rgba(246, 149, 237, 1)"></use><use xlink:href="#SvgjsPath20903" x="90" y="690" stroke="rgba(255, 122, 246, 1)"></use><use xlink:href="#SvgjsPath20904" x="150" y="30" stroke="rgba(255, 122, 246, 1)"></use><use xlink:href="#SvgjsPath20899" x="150" y="90" stroke="rgba(183, 77, 255, 1)"></use><use xlink:href="#SvgjsPath20900" x="150" y="150" stroke="rgba(77, 138, 255, 1)"></use><use xlink:href="#SvgjsPath20903" x="150" y="210" stroke="rgba(217, 175, 217, 1)"></use><use xlink:href="#SvgjsPath20899" x="150" y="270" stroke="rgba(255, 122, 246, 1)"></use><use xlink:href="#SvgjsPath20901" x="150" y="330" stroke="rgba(217, 175, 217, 1)"></use><use xlink:href="#SvgjsPath20903" x="150" y="390" stroke="rgba(217, 175, 217, 1)"></use><use xlink:href="#SvgjsPath20903" x="150" y="450" stroke="rgba(255, 122, 246, 1)"></use><use xlink:href="#SvgjsPath20901" x="150" y="510" stroke="rgba(46, 113, 243, 1)"></use><use xlink:href="#SvgjsPath20903" x="150" y="570" stroke="rgba(217, 175, 217, 1)"></use><use xlink:href="#SvgjsPath20899" x="150" y="630" stroke="rgba(183, 77, 255, 1)"></use><use xlink:href="#SvgjsPath20901" x="150" y="690" stroke="rgba(77, 138, 255, 1)"></use><use xlink:href="#SvgjsPath20901" x="210" y="30" stroke="rgba(183, 77, 255, 1)"></use><use xlink:href="#SvgjsPath20903" x="210" y="90" stroke="rgba(46, 113, 243, 1)"></use><use xlink:href="#SvgjsPath20901" x="210" y="150" stroke="rgba(217, 175, 217, 1)"></use><use xlink:href="#SvgjsPath20899" x="210" y="210" stroke="rgba(217, 175, 217, 1)"></use><use xlink:href="#SvgjsPath20901" x="210" y="270" stroke="rgba(183, 77, 255, 1)"></use><use xlink:href="#SvgjsPath20901" x="210" y="330" stroke="rgba(77, 138, 255, 1)"></use><use xlink:href="#SvgjsPath20902" x="210" y="390" stroke="rgba(46, 113, 243, 1)" stroke-width="3"></use><use xlink:href="#SvgjsPath20900" x="210" y="450" stroke="rgba(0, 76, 221, 1)"></use><use xlink:href="#SvgjsPath20901" x="210" y="510" stroke="rgba(0, 76, 221, 1)"></use><use xlink:href="#SvgjsPath20903" x="210" y="570" stroke="rgba(183, 77, 255, 1)"></use><use xlink:href="#SvgjsPath20903" x="210" y="630" stroke="rgba(246, 149, 237, 1)"></use><use xlink:href="#SvgjsPath20900" x="210" y="690" stroke="rgba(46, 113, 243, 1)"></use><use xlink:href="#SvgjsPath20900" x="270" y="30" stroke="rgba(46, 113, 243, 1)"></use><use xlink:href="#SvgjsPath20903" x="270" y="90" stroke="rgba(183, 77, 255, 1)"></use><use xlink:href="#SvgjsPath20901" x="270" y="150" stroke="rgba(255, 122, 246, 1)"></use><use xlink:href="#SvgjsPath20901" x="270" y="210" stroke="rgba(217, 175, 217, 1)"></use><use xlink:href="#SvgjsPath20900" x="270" y="270" stroke="rgba(46, 113, 243, 1)"></use><use xlink:href="#SvgjsPath20903" x="270" y="330" stroke="rgba(183, 77, 255, 1)"></use><use xlink:href="#SvgjsPath20904" x="270" y="390" stroke="rgba(255, 122, 246, 1)"></use><use xlink:href="#SvgjsPath20904" x="270" y="450" stroke="rgba(0, 76, 221, 1)"></use><use xlink:href="#SvgjsPath20899" x="270" y="510" stroke="rgba(217, 175, 217, 1)"></use><use xlink:href="#SvgjsPath20901" x="270" y="570" stroke="rgba(0, 76, 221, 1)"></use><use xlink:href="#SvgjsPath20903" x="270" y="630" stroke="rgba(255, 122, 246, 1)"></use><use xlink:href="#SvgjsPath20899" x="270" y="690" stroke="rgba(0, 76, 221, 1)"></use><use xlink:href="#SvgjsPath20901" x="330" y="30" stroke="rgba(183, 77, 255, 1)"></use><use xlink:href="#SvgjsPath20903" x="330" y="90" stroke="rgba(0, 76, 221, 1)"></use><use xlink:href="#SvgjsPath20900" x="330" y="150" stroke="rgba(217, 175, 217, 1)"></use><use xlink:href="#SvgjsPath20900" x="330" y="210" stroke="rgba(246, 149, 237, 1)"></use><use xlink:href="#SvgjsPath20901" x="330" y="270" stroke="rgba(0, 76, 221, 1)"></use><use xlink:href="#SvgjsPath20901" x="330" y="330" stroke="rgba(77, 138, 255, 1)"></use><use xlink:href="#SvgjsPath20901" x="330" y="390" stroke="rgba(255, 122, 246, 1)"></use><use xlink:href="#SvgjsPath20903" x="330" y="450" stroke="rgba(46, 113, 243, 1)"></use><use xlink:href="#SvgjsPath20901" x="330" y="510" stroke="rgba(255, 122, 246, 1)"></use><use xlink:href="#SvgjsPath20903" x="330" y="570" stroke="rgba(255, 122, 246, 1)"></use><use xlink:href="#SvgjsPath20904" x="330" y="630" stroke="rgba(246, 149, 237, 1)"></use><use xlink:href="#SvgjsPath20901" x="330" y="690" stroke="rgba(46, 113, 243, 1)"></use><use xlink:href="#SvgjsPath20900" x="390" y="30" stroke="rgba(46, 113, 243, 1)"></use><use xlink:href="#SvgjsPath20903" x="390" y="90" stroke="rgba(255, 122, 246, 1)"></use><use xlink:href="#SvgjsPath20899" x="390" y="150" stroke="rgba(0, 76, 221, 1)"></use><use xlink:href="#SvgjsPath20904" x="390" y="210" stroke="rgba(46, 113, 243, 1)"></use><use xlink:href="#SvgjsPath20903" x="390" y="270" stroke="rgba(217, 175, 217, 1)"></use><use xlink:href="#SvgjsPath20903" x="390" y="330" stroke="rgba(255, 122, 246, 1)"></use><use xlink:href="#SvgjsPath20899" x="390" y="390" stroke="rgba(183, 77, 255, 1)"></use><use xlink:href="#SvgjsPath20899" x="390" y="450" stroke="rgba(183, 77, 255, 1)"></use><use xlink:href="#SvgjsPath20901" x="390" y="510" stroke="rgba(217, 175, 217, 1)"></use><use xlink:href="#SvgjsPath20902" x="390" y="570" stroke="rgba(46, 113, 243, 1)" stroke-width="3"></use><use xlink:href="#SvgjsPath20903" x="390" y="630" stroke="rgba(255, 122, 246, 1)"></use><use xlink:href="#SvgjsPath20903" x="390" y="690" stroke="rgba(217, 175, 217, 1)"></use><use xlink:href="#SvgjsPath20900" x="450" y="30" stroke="rgba(0, 76, 221, 1)"></use><use xlink:href="#SvgjsPath20903" x="450" y="90" stroke="rgba(183, 77, 255, 1)"></use><use xlink:href="#SvgjsPath20903" x="450" y="150" stroke="rgba(217, 175, 217, 1)"></use><use xlink:href="#SvgjsPath20899" x="450" y="210" stroke="rgba(46, 113, 243, 1)"></use><use xlink:href="#SvgjsPath20901" x="450" y="270" stroke="rgba(0, 76, 221, 1)"></use><use xlink:href="#SvgjsPath20900" x="450" y="330" stroke="rgba(77, 138, 255, 1)"></use><use xlink:href="#SvgjsPath20901" x="450" y="390" stroke="rgba(255, 122, 246, 1)"></use><use xlink:href="#SvgjsPath20903" x="450" y="450" stroke="rgba(0, 76, 221, 1)"></use><use xlink:href="#SvgjsPath20901" x="450" y="510" stroke="rgba(77, 138, 255, 1)"></use><use xlink:href="#SvgjsPath20901" x="450" y="570" stroke="rgba(246, 149, 237, 1)"></use><use xlink:href="#SvgjsPath20901" x="450" y="630" stroke="rgba(183, 77, 255, 1)"></use><use xlink:href="#SvgjsPath20903" x="450" y="690" stroke="rgba(183, 77, 255, 1)"></use><use xlink:href="#SvgjsPath20900" x="510" y="30" stroke="rgba(255, 122, 246, 1)"></use><use xlink:href="#SvgjsPath20901" x="510" y="90" stroke="rgba(246, 149, 237, 1)"></use><use xlink:href="#SvgjsPath20901" x="510" y="150" stroke="rgba(246, 149, 237, 1)"></use><use xlink:href="#SvgjsPath20903" x="510" y="210" stroke="rgba(255, 122, 246, 1)"></use><use xlink:href="#SvgjsPath20903" x="510" y="270" stroke="rgba(0, 76, 221, 1)"></use><use xlink:href="#SvgjsPath20903" x="510" y="330" stroke="rgba(255, 122, 246, 1)"></use><use xlink:href="#SvgjsPath20903" x="510" y="390" stroke="rgba(246, 149, 237, 1)"></use><use xlink:href="#SvgjsPath20901" x="510" y="450" stroke="rgba(246, 149, 237, 1)"></use><use xlink:href="#SvgjsPath20903" x="510" y="510" stroke="rgba(0, 76, 221, 1)"></use><use xlink:href="#SvgjsPath20899" x="510" y="570" stroke="rgba(0, 76, 221, 1)"></use><use xlink:href="#SvgjsPath20903" x="510" y="630" stroke="rgba(183, 77, 255, 1)"></use><use xlink:href="#SvgjsPath20899" x="510" y="690" stroke="rgba(217, 175, 217, 1)"></use><use xlink:href="#SvgjsPath20903" x="570" y="30" stroke="rgba(255, 122, 246, 1)"></use><use xlink:href="#SvgjsPath20901" x="570" y="90" stroke="rgba(246, 149, 237, 1)"></use><use xlink:href="#SvgjsPath20902" x="570" y="150" stroke="rgba(255, 122, 246, 1)" stroke-width="3"></use><use xlink:href="#SvgjsPath20904" x="570" y="210" stroke="rgba(255, 122, 246, 1)"></use><use xlink:href="#SvgjsPath20904" x="570" y="270" stroke="rgba(77, 138, 255, 1)"></use><use xlink:href="#SvgjsPath20901" x="570" y="330" stroke="rgba(77, 138, 255, 1)"></use><use xlink:href="#SvgjsPath20901" x="570" y="390" stroke="rgba(46, 113, 243, 1)"></use><use xlink:href="#SvgjsPath20903" x="570" y="450" stroke="rgba(246, 149, 237, 1)"></use><use xlink:href="#SvgjsPath20903" x="570" y="510" stroke="rgba(46, 113, 243, 1)"></use><use xlink:href="#SvgjsPath20903" x="570" y="570" stroke="rgba(183, 77, 255, 1)"></use><use xlink:href="#SvgjsPath20903" x="570" y="630" stroke="rgba(77, 138, 255, 1)"></use><use xlink:href="#SvgjsPath20904" x="570" y="690" stroke="rgba(217, 175, 217, 1)"></use><use xlink:href="#SvgjsPath20903" x="630" y="30" stroke="rgba(183, 77, 255, 1)"></use><use xlink:href="#SvgjsPath20901" x="630" y="90" stroke="rgba(183, 77, 255, 1)"></use><use xlink:href="#SvgjsPath20903" x="630" y="150" stroke="rgba(46, 113, 243, 1)"></use><use xlink:href="#SvgjsPath20899" x="630" y="210" stroke="rgba(246, 149, 237, 1)"></use><use xlink:href="#SvgjsPath20900" x="630" y="270" stroke="rgba(77, 138, 255, 1)"></use><use xlink:href="#SvgjsPath20904" x="630" y="330" stroke="rgba(217, 175, 217, 1)"></use><use xlink:href="#SvgjsPath20903" x="630" y="390" stroke="rgba(77, 138, 255, 1)"></use><use xlink:href="#SvgjsPath20901" x="630" y="450" stroke="rgba(246, 149, 237, 1)"></use><use xlink:href="#SvgjsPath20902" x="630" y="510" stroke="rgba(246, 149, 237, 1)" stroke-width="3"></use><use xlink:href="#SvgjsPath20903" x="630" y="570" stroke="rgba(183, 77, 255, 1)"></use><use xlink:href="#SvgjsPath20903" x="630" y="630" stroke="rgba(217, 175, 217, 1)"></use><use xlink:href="#SvgjsPath20904" x="630" y="690" stroke="rgba(0, 76, 221, 1)"></use><use xlink:href="#SvgjsPath20903" x="690" y="30" stroke="rgba(246, 149, 237, 1)"></use><use xlink:href="#SvgjsPath20901" x="690" y="90" stroke="rgba(183, 77, 255, 1)"></use><use xlink:href="#SvgjsPath20903" x="690" y="150" stroke="rgba(46, 113, 243, 1)"></use><use xlink:href="#SvgjsPath20899" x="690" y="210" stroke="rgba(0, 76, 221, 1)"></use><use xlink:href="#SvgjsPath20901" x="690" y="270" stroke="rgba(0, 76, 221, 1)"></use><use xlink:href="#SvgjsPath20902" x="690" y="330" stroke="rgba(217, 175, 217, 1)" stroke-width="3"></use><use xlink:href="#SvgjsPath20904" x="690" y="390" stroke="rgba(183, 77, 255, 1)"></use><use xlink:href="#SvgjsPath20903" x="690" y="450" stroke="rgba(255, 122, 246, 1)"></use><use xlink:href="#SvgjsPath20901" x="690" y="510" stroke="rgba(255, 122, 246, 1)"></use><use xlink:href="#SvgjsPath20900" x="690" y="570" stroke="rgba(246, 149, 237, 1)"></use><use xlink:href="#SvgjsPath20904" x="690" y="630" stroke="rgba(246, 149, 237, 1)"></use><use xlink:href="#SvgjsPath20904" x="690" y="690" stroke="rgba(255, 122, 246, 1)"></use></symbol></svg>